#usda 1.0
(
    defaultPrim = "tableSim"
    metersPerUnit = 1
    upAxis = "Z"
)

def Xform "tableSim"
{
    quatf xformOp:orient = (1, 0, 0, 0)
    float3 xformOp:scale = (1, 1, 1)
    double3 xformOp:translate = (0, 0, 0)
    uniform token[] xformOpOrder = ["xformOp:translate", "xformOp:orient", "xformOp:scale"]

    def Scope "Looks"
    {
        def Material "TableMaterial"
        {
            token outputs:surface.connect = </tableSim/Looks/TableMaterial/PreviewSurface.outputs:surface>

            def Shader "PreviewSurface"
            {
                uniform token info:id = "UsdPreviewSurface"
                color3f inputs:diffuseColor = (0.58, 0.56, 0.5)
                float inputs:metallic = 0
                float inputs:opacity = 1
                float inputs:roughness = 0.65
                token outputs:surface
            }
        }
    }

    def Mesh "Mesh"
    {
        uniform bool doubleSided = 1
        float3[] extent = [(-0.254, -0.30479997, -0.6205), (0.254, 0.30479997, 0)]
        int[] faceVertexCounts = [3, 3, 3, 3, 3, 3, 3, 3, 3, 3, 3, 3, 3, 3, 3, 3, 3, 3, 3, 3, 3, 3, 3, 3, 3, 3, 3, 3, 3, 3, 3, 3, 3, 3, 3, 3, 3, 3, 3, 3, 3, 3, 3, 3, 3, 3, 3, 3, 3, 3, 3, 3, 3, 3, 3, 3, 3, 3, 3, 3, 3, 3, 3, 3, 3, 3, 3, 3, 3, 3, 3, 3, 3, 3, 3, 3, 3, 3, 3, 3, 3, 3, 3, 3, 3, 3, 3, 3, 3, 3, 3, 3, 3, 3, 3, 3, 3, 3, 3, 3, 3, 3, 3, 3, 3, 3, 3, 3, 3, 3, 3, 3, 3, 3, 3, 3, 3, 3, 3, 3, 3, 3, 3, 3, 3, 3, 3, 3, 3, 3, 3, 3, 3, 3, 3, 3, 3, 3, 3, 3, 3, 3, 3, 3, 3, 3, 3, 3, 3, 3, 3, 3, 3, 3, 3, 3, 3, 3, 3, 3, 3, 3, 3, 3, 3, 3, 3, 3, 3, 3, 3, 3, 3, 3, 3, 3, 3, 3, 3, 3, 3, 3, 3, 3, 3, 3, 3, 3, 3, 3, 3, 3, 3, 3, 3, 3, 3, 3, 3, 3, 3, 3, 3, 3, 3, 3, 3, 3, 3, 3, 3, 3, 3, 3, 3, 3, 3, 3, 3, 3, 3, 3, 3, 3, 3, 3, 3, 3, 3, 3, 3, 3, 3, 3, 3, 3, 3, 3, 3, 3, 3, 3, 3, 3, 3, 3, 3, 3, 3, 3, 3, 3, 3, 3, 3, 3, 3, 3, 3, 3, 3, 3, 3, 3, 3, 3, 3, 3, 3, 3, 3, 3, 3, 3, 3, 3, 3, 3, 3, 3, 3, 3, 3, 3, 3, 3, 3, 3, 3, 3, 3, 3, 3, 3, 3, 3, 3, 3, 3, 3, 3, 3, 3, 3, 3, 3, 3, 3, 3, 3, 3, 3, 3, 3, 3, 3, 3, 3, 3, 3, 3, 3, 3, 3, 3, 3, 3, 3, 3, 3, 3, 3, 3, 3, 3, 3, 3, 3, 3, 3, 3, 3, 3, 3, 3, 3, 3, 3, 3, 3, 3, 3, 3, 3, 3, 3, 3, 3, 3, 3, 3, 3, 3, 3, 3, 3, 3, 3, 3, 3, 3, 3, 3, 3, 3, 3, 3, 3, 3, 3, 3, 3, 3, 3, 3, 3, 3, 3, 3, 3, 3, 3, 3, 3, 3, 3, 3, 3, 3, 3, 3, 3, 3, 3, 3, 3, 3, 3, 3, 3, 3, 3, 3, 3, 3, 3, 3, 3, 3, 3, 3, 3, 3, 3, 3, 3, 3, 3, 3, 3, 3, 3, 3, 3, 3, 3, 3, 3, 3, 3, 3, 3, 3, 3, 3, 3, 3, 3, 3, 3, 3, 3, 3, 3, 3, 3, 3, 3, 3, 3, 3, 3, 3, 3, 3, 3, 3, 3, 3, 3, 3, 3, 3, 3, 3, 3, 3, 3, 3, 3, 3, 3, 3, 3, 3, 3, 3, 3, 3, 3, 3, 3, 3, 3, 3, 3, 3, 3, 3, 3, 3, 3, 3, 3, 3, 3, 3, 3, 3, 3, 3, 3, 3, 3, 3, 3, 3, 3, 3, 3, 3, 3, 3, 3, 3, 3, 3, 3, 3, 3, 3, 3, 3, 3, 3, 3, 3, 3, 3, 3, 3, 3, 3, 3, 3, 3, 3, 3, 3, 3, 3, 3, 3, 3, 3, 3, 3, 3, 3, 3, 3, 3, 3, 3, 3, 3, 3, 3, 3, 3, 3, 3, 3, 3, 3, 3, 3, 3, 3, 3, 3, 3, 3, 3, 3, 3, 3, 3, 3, 3, 3, 3, 3, 3, 3, 3, 3, 3, 3, 3, 3, 3, 3, 3, 3, 3, 3, 3, 3, 3, 3, 3, 3, 3, 3, 3, 3, 3, 3, 3, 3, 3, 3, 3, 3, 3, 3, 3, 3, 3, 3, 3, 3, 3, 3, 3, 3, 3, 3, 3, 3, 3, 3, 3, 3, 3, 3, 3, 3, 3, 3, 3, 3, 3, 3, 3, 3, 3, 3, 3, 3, 3, 3, 3, 3, 3, 3, 3, 3, 3, 3, 3, 3, 3, 3, 3, 3, 3, 3, 3, 3, 3, 3, 3, 3, 3, 3, 3, 3, 3, 3, 3, 3, 3, 3, 3, 3, 3, 3, 3, 3, 3, 3, 3, 3, 3, 3, 3, 3, 3, 3, 3, 3, 3, 3, 3, 3, 3, 3, 3, 3, 3, 3, 3, 3, 3, 3, 3, 3, 3, 3, 3, 3, 3, 3, 3, 3, 3, 3, 3, 3, 3, 3, 3, 3, 3, 3, 3, 3, 3, 3, 3, 3, 3, 3, 3, 3, 3, 3, 3, 3, 3, 3, 3, 3, 3, 3, 3, 3, 3, 3, 3, 3, 3, 3, 3, 3, 3, 3, 3, 3, 3, 3, 3, 3, 3, 3, 3, 3, 3, 3, 3, 3, 3, 3, 3, 3, 3, 3, 3, 3, 3, 3, 3, 3, 3, 3, 3, 3, 3, 3, 3, 3, 3, 3, 3, 3, 3, 3, 3, 3, 3, 3, 3, 3, 3, 3, 3, 3, 3, 3, 3, 3, 3, 3, 3, 3, 3, 3, 3, 3, 3, 3, 3, 3, 3, 3, 3, 3, 3, 3, 3, 3, 3, 3, 3, 3, 3, 3, 3, 3, 3, 3, 3, 3, 3, 3, 3, 3, 3, 3, 3, 3, 3, 3, 3, 3, 3, 3, 3, 3, 3, 3, 3, 3, 3, 3, 3, 3, 3, 3, 3, 3, 3, 3, 3, 3, 3, 3, 3, 3, 3, 3, 3, 3, 3, 3, 3, 3, 3, 3, 3, 3, 3, 3, 3, 3, 3, 3, 3, 3, 3, 3, 3, 3, 3, 3, 3, 3, 3, 3, 3, 3, 3, 3, 3, 3, 3, 3, 3, 3, 3, 3, 3, 3, 3, 3, 3, 3, 3, 3, 3, 3, 3, 3, 3, 3, 3, 3, 3, 3, 3, 3, 3, 3, 3, 3, 3, 3, 3, 3, 3, 3, 3, 3, 3, 3, 3, 3, 3, 3, 3, 3, 3, 3, 3, 3, 3, 3, 3, 3, 3, 3, 3, 3, 3, 3, 3, 3, 3, 3, 3, 3, 3, 3, 3, 3, 3, 3, 3, 3, 3, 3, 3, 3, 3, 3, 3, 3, 3, 3, 3, 3, 3, 3, 3, 3, 3, 3, 3, 3, 3, 3, 3, 3, 3, 3, 3, 3, 3, 3, 3, 3, 3, 3, 3, 3, 3, 3, 3, 3, 3, 3, 3, 3, 3, 3, 3, 3, 3, 3, 3, 3, 3, 3, 3, 3, 3, 3, 3, 3, 3, 3, 3, 3, 3, 3, 3, 3, 3, 3, 3, 3, 3, 3, 3, 3, 3, 3, 3, 3, 3, 3, 3, 3, 3, 3, 3, 3, 3, 3, 3, 3, 3, 3, 3, 3, 3, 3, 3, 3, 3, 3, 3, 3, 3, 3, 3, 3, 3, 3, 3, 3, 3, 3, 3, 3, 3, 3, 3, 3, 3, 3, 3, 3, 3, 3, 3, 3, 3, 3, 3, 3, 3, 3, 3, 3, 3, 3, 3, 3, 3, 3, 3, 3, 3, 3, 3, 3, 3, 3, 3, 3, 3, 3, 3, 3, 3, 3, 3, 3, 3, 3, 3, 3, 3, 3, 3, 3, 3, 3, 3, 3, 3, 3, 3, 3, 3, 3, 3, 3, 3, 3, 3, 3, 3, 3, 3, 3, 3, 3, 3, 3, 3, 3, 3, 3, 3, 3, 3, 3, 3, 3, 3, 3, 3, 3, 3, 3, 3, 3, 3, 3, 3, 3, 3, 3, 3, 3, 3, 3, 3, 3, 3, 3, 3, 3, 3, 3, 3, 3, 3, 3, 3, 3, 3, 3, 3, 3, 3, 3, 3, 3, 3, 3, 3, 3, 3, 3, 3, 3, 3, 3, 3, 3, 3, 3, 3, 3, 3, 3, 3, 3, 3, 3, 3, 3, 3, 3, 3, 3, 3, 3, 3, 3, 3, 3, 3, 3, 3, 3, 3, 3, 3, 3, 3, 3, 3, 3, 3, 3, 3, 3, 3, 3, 3, 3, 3, 3, 3, 3, 3, 3, 3, 3, 3, 3, 3, 3, 3, 3, 3, 3, 3, 3, 3, 3, 3, 3, 3, 3, 3, 3, 3, 3, 3, 3, 3, 3, 3, 3, 3, 3, 3, 3, 3, 3, 3, 3, 3, 3, 3, 3, 3, 3, 3, 3, 3, 3, 3, 3, 3, 3, 3, 3, 3, 3, 3, 3, 3, 3, 3, 3, 3, 3, 3, 3, 3, 3, 3, 3, 3, 3, 3, 3, 3, 3, 3, 3, 3, 3, 3, 3, 3, 3, 3, 3, 3, 3, 3, 3, 3, 3, 3, 3, 3, 3, 3, 3, 3, 3, 3, 3, 3, 3, 3, 3, 3, 3, 3, 3, 3, 3, 3, 3, 3, 3, 3, 3, 3, 3, 3, 3, 3, 3, 3, 3, 3, 3, 3, 3, 3, 3, 3, 3, 3, 3, 3, 3, 3, 3, 3, 3, 3, 3, 3, 3, 3, 3, 3, 3, 3, 3, 3, 3, 3, 3, 3, 3, 3, 3, 3, 3, 3, 3, 3, 3, 3, 3, 3, 3, 3, 3, 3, 3, 3, 3, 3, 3, 3, 3, 3, 3, 3, 3, 3, 3, 3, 3, 3, 3, 3, 3, 3, 3, 3, 3, 3, 3, 3, 3, 3, 3, 3, 3, 3, 3, 3, 3, 3, 3, 3, 3, 3, 3, 3, 3, 3, 3, 3, 3, 3, 3, 3, 3, 3, 3, 3, 3, 3, 3, 3, 3, 3, 3, 3, 3, 3, 3, 3, 3, 3, 3, 3, 3, 3, 3, 3, 3, 3, 3, 3, 3, 3, 3, 3, 3, 3, 3, 3, 3, 3, 3, 3, 3, 3, 3, 3, 3, 3, 3, 3, 3, 3, 3, 3, 3, 3, 3, 3, 3, 3, 3, 3, 3, 3, 3, 3, 3, 3, 3, 3, 3, 3, 3, 3]
        int[] faceVertexIndices = [0, 1, 2, 0, 2, 3, 4, 5, 0, 5, 4, 6, 4, 0, 3, 0, 5, 7, 8, 9, 0, 9, 10, 0, 11, 12, 13, 8, 0, 7, 10, 11, 14, 0, 10, 15, 16, 6, 4, 17, 16, 4, 18, 19, 20, 21, 18, 22, 17, 4, 19, 23, 24, 25, 26, 27, 28, 29, 30, 24, 25, 24, 31, 21, 22, 26, 4, 32, 19, 12, 33, 34, 35, 36, 15, 36, 37, 15, 14, 11, 13, 10, 14, 35, 37, 38, 15, 15, 39, 40, 39, 15, 41, 15, 42, 41, 42, 15, 43, 42, 43, 44, 15, 38, 43, 15, 10, 35, 33, 45, 34, 45, 46, 47, 47, 46, 23, 47, 23, 25, 25, 31, 48, 49, 50, 42, 44, 49, 42, 51, 52, 53, 54, 51, 55, 50, 54, 42, 13, 12, 34, 46, 45, 33, 42, 54, 56, 28, 29, 57, 27, 26, 22, 20, 58, 18, 59, 60, 32, 61, 59, 32, 20, 32, 60, 62, 24, 30, 30, 29, 28, 63, 64, 31, 62, 63, 31, 31, 24, 62, 57, 26, 28, 65, 66, 32, 32, 66, 61, 65, 32, 67, 68, 69, 65, 68, 65, 67, 66, 65, 70, 71, 72, 73, 74, 75, 65, 76, 74, 65, 70, 65, 75, 72, 76, 73, 65, 77, 76, 20, 19, 32, 78, 79, 80, 48, 31, 79, 80, 79, 31, 31, 64, 81, 82, 81, 64, 78, 80, 53, 83, 54, 55, 55, 51, 53, 84, 85, 56, 86, 84, 56, 83, 56, 54, 81, 82, 87, 56, 83, 86, 87, 82, 71, 88, 89, 77, 90, 88, 77, 71, 73, 87, 91, 90, 77, 56, 77, 92, 77, 56, 93, 93, 56, 85, 94, 77, 95, 77, 94, 92, 93, 91, 77, 76, 89, 73, 76, 77, 89, 78, 53, 52, 22, 18, 58, 96, 97, 98, 98, 99, 96, 100, 101, 102, 103, 102, 101, 104, 105, 106, 106, 107, 104, 108, 109, 110, 110, 111, 108, 112, 113, 114, 114, 115, 112, 116, 117, 118, 118, 119, 116, 120, 121, 122, 122, 123, 120, 124, 125, 126, 126, 127, 124, 128, 129, 130, 130, 131, 128, 132, 133, 134, 135, 134, 133, 136, 137, 138, 138, 139, 136, 140, 141, 142, 142, 143, 140, 144, 145, 146, 146, 147, 144, 148, 149, 150, 150, 151, 148, 152, 153, 154, 153, 152, 155, 156, 157, 158, 158, 159, 156, 160, 161, 162, 162, 163, 160, 164, 165, 166, 166, 167, 164, 168, 169, 170, 170, 171, 168, 172, 173, 174, 174, 175, 172, 176, 177, 178, 178, 179, 176, 180, 181, 182, 182, 183, 180, 184, 185, 186, 186, 187, 184, 188, 189, 190, 190, 191, 188, 192, 193, 194, 193, 192, 195, 196, 197, 198, 196, 198, 199, 197, 200, 201, 197, 201, 198, 202, 203, 204, 204, 201, 202, 205, 204, 203, 202, 201, 200, 206, 207, 208, 208, 209, 206, 178, 177, 210, 209, 211, 212, 211, 213, 212, 213, 211, 210, 213, 210, 177, 209, 212, 206, 214, 215, 216, 217, 216, 215, 218, 215, 214, 215, 219, 220, 217, 215, 220, 221, 217, 220, 218, 219, 215, 222, 218, 214, 223, 222, 224, 223, 224, 225, 226, 223, 227, 218, 222, 223, 228, 218, 223, 225, 227, 223, 218, 228, 219, 220, 229, 230, 230, 231, 221, 232, 231, 230, 220, 219, 229, 229, 233, 230, 232, 230, 233, 234, 233, 229, 219, 235, 229, 226, 236, 228, 235, 228, 236, 223, 226, 228, 229, 235, 237, 236, 238, 235, 237, 235, 238, 235, 219, 228, 229, 237, 234, 221, 220, 230, 239, 240, 241, 239, 241, 242, 240, 243, 244, 240, 244, 241, 245, 246, 247, 244, 243, 248, 247, 248, 245, 248, 243, 245, 249, 250, 251, 250, 249, 252, 250, 252, 253, 253, 254, 250, 255, 256, 254, 255, 257, 256, 258, 256, 257, 253, 255, 254, 259, 260, 261, 262, 259, 261, 263, 260, 259, 264, 263, 259, 265, 266, 267, 267, 264, 268, 267, 268, 265, 263, 264, 267, 187, 269, 270, 187, 270, 184, 269, 271, 272, 269, 272, 270, 273, 274, 275, 275, 272, 273, 276, 275, 274, 273, 272, 271, 277, 278, 279, 277, 279, 280, 281, 282, 283, 284, 283, 282, 281, 285, 286, 287, 288, 277, 289, 290, 291, 291, 290, 292, 285, 291, 292, 282, 281, 286, 280, 287, 277, 293, 294, 282, 295, 284, 282, 294, 295, 282, 296, 297, 294, 295, 294, 297, 286, 293, 282, 296, 294, 279, 292, 298, 286, 293, 286, 298, 280, 279, 293, 299, 298, 292, 298, 299, 280, 300, 296, 301, 280, 299, 287, 297, 296, 300, 280, 293, 298, 279, 294, 293, 290, 299, 292, 285, 292, 286, 301, 296, 279, 278, 301, 279, 302, 303, 304, 305, 303, 302, 306, 307, 302, 305, 302, 307, 308, 307, 306, 309, 302, 304, 310, 306, 302, 311, 309, 312, 313, 312, 314, 315, 313, 314, 311, 312, 313, 310, 311, 316, 313, 315, 317, 311, 302, 309, 310, 302, 311, 306, 318, 319, 308, 306, 319, 320, 308, 319, 318, 306, 310, 319, 321, 320, 319, 322, 321, 322, 319, 318, 323, 324, 317, 316, 317, 324, 313, 317, 316, 324, 325, 318, 322, 318, 325, 323, 326, 324, 325, 324, 326, 310, 316, 324, 324, 318, 310, 311, 313, 316, 327, 31, 81, 327, 328, 329, 329, 31, 327, 328, 330, 331, 330, 332, 331, 333, 331, 332, 329, 328, 331, 334, 335, 336, 335, 334, 337, 337, 338, 335, 339, 340, 338, 341, 342, 339, 340, 339, 342, 337, 339, 338, 343, 344, 345, 343, 345, 346, 126, 125, 347, 348, 349, 347, 345, 344, 350, 347, 350, 348, 349, 126, 347, 350, 344, 348, 127, 351, 352, 127, 352, 124, 351, 353, 354, 351, 354, 352, 355, 356, 357, 357, 354, 355, 358, 357, 356, 355, 354, 353, 359, 360, 361, 361, 362, 359, 360, 359, 363, 363, 364, 360, 365, 366, 364, 365, 367, 366, 368, 366, 367, 363, 365, 364, 369, 370, 371, 371, 372, 373, 374, 375, 369, 370, 369, 375, 376, 375, 374, 369, 371, 373, 374, 369, 377, 378, 379, 380, 372, 379, 373, 373, 379, 378, 381, 378, 382, 377, 373, 383, 383, 373, 378, 380, 382, 378, 377, 369, 373, 374, 384, 385, 385, 386, 376, 387, 386, 385, 374, 377, 384, 384, 388, 385, 387, 385, 388, 389, 388, 384, 377, 390, 384, 381, 390, 383, 383, 390, 377, 391, 390, 381, 378, 381, 383, 392, 390, 393, 393, 390, 391, 392, 384, 390, 384, 392, 389, 376, 374, 385, 394, 395, 396, 394, 396, 397, 395, 398, 399, 395, 399, 396, 400, 401, 402, 399, 398, 403, 402, 403, 400, 403, 398, 400, 404, 405, 406, 404, 406, 407, 405, 408, 409, 405, 409, 406, 410, 411, 412, 409, 408, 413, 412, 413, 410, 413, 408, 410, 414, 415, 416, 417, 415, 414, 418, 419, 414, 417, 414, 419, 420, 419, 418, 421, 414, 416, 422, 418, 414, 423, 424, 425, 423, 425, 426, 424, 423, 421, 422, 421, 427, 423, 428, 429, 426, 428, 423, 421, 416, 424, 422, 414, 421, 418, 430, 431, 420, 418, 431, 432, 420, 431, 430, 418, 422, 431, 433, 432, 430, 433, 431, 433, 430, 434, 435, 436, 429, 427, 429, 436, 423, 429, 427, 436, 437, 430, 434, 430, 437, 435, 438, 436, 437, 436, 438, 422, 427, 436, 436, 430, 422, 421, 423, 427, 439, 440, 441, 442, 439, 441, 443, 440, 439, 443, 444, 440, 445, 446, 444, 445, 447, 446, 448, 446, 447, 443, 445, 444, 449, 450, 451, 450, 452, 451, 452, 450, 453, 452, 453, 454, 455, 456, 457, 454, 453, 458, 457, 458, 455, 458, 453, 455, 459, 460, 461, 459, 461, 462, 460, 463, 464, 460, 464, 461, 465, 466, 467, 464, 463, 468, 467, 468, 465, 468, 463, 465, 469, 470, 471, 471, 472, 469, 470, 469, 473, 473, 474, 470, 475, 476, 474, 475, 477, 476, 478, 476, 477, 473, 475, 474, 479, 480, 481, 479, 481, 482, 483, 484, 485, 486, 485, 484, 484, 483, 487, 488, 489, 482, 490, 491, 492, 491, 493, 494, 494, 493, 487, 487, 483, 494, 484, 495, 496, 481, 488, 482, 484, 496, 497, 498, 497, 496, 484, 487, 495, 496, 480, 499, 498, 496, 499, 495, 480, 496, 487, 500, 495, 490, 500, 493, 493, 500, 487, 501, 500, 490, 491, 490, 493, 500, 501, 481, 502, 499, 503, 481, 501, 488, 498, 499, 502, 481, 495, 500, 495, 481, 480, 497, 486, 484, 503, 499, 480, 479, 503, 480, 504, 505, 506, 507, 506, 505, 508, 505, 504, 505, 509, 510, 507, 505, 510, 511, 507, 510, 508, 509, 505, 512, 508, 504, 513, 512, 514, 513, 514, 515, 516, 513, 517, 508, 512, 513, 518, 508, 513, 515, 517, 513, 508, 518, 509, 510, 519, 520, 520, 521, 511, 522, 521, 520, 519, 510, 509, 520, 523, 522, 519, 523, 520, 524, 523, 519, 525, 518, 516, 525, 519, 509, 525, 509, 518, 513, 516, 518, 526, 527, 525, 519, 525, 527, 525, 528, 526, 516, 528, 525, 527, 524, 519, 511, 510, 520, 529, 530, 531, 531, 532, 529, 530, 529, 533, 533, 534, 530, 535, 536, 534, 535, 537, 536, 538, 536, 537, 533, 535, 534, 539, 540, 541, 539, 541, 542, 540, 543, 544, 540, 544, 541, 545, 546, 547, 544, 543, 548, 547, 548, 545, 548, 543, 545, 549, 550, 79, 78, 549, 79, 551, 552, 550, 549, 551, 550, 553, 554, 555, 556, 552, 551, 555, 556, 553, 555, 552, 556, 557, 558, 559, 557, 559, 560, 558, 561, 562, 558, 562, 559, 563, 564, 565, 562, 561, 566, 565, 566, 563, 566, 561, 563, 550, 552, 567, 550, 567, 568, 569, 570, 571, 572, 571, 570, 569, 573, 574, 575, 576, 550, 577, 578, 579, 579, 578, 580, 573, 579, 580, 570, 569, 574, 568, 575, 550, 581, 582, 570, 583, 572, 570, 582, 583, 570, 584, 585, 582, 583, 582, 585, 574, 581, 570, 584, 582, 567, 580, 586, 574, 581, 574, 586, 568, 567, 581, 587, 586, 580, 586, 587, 568, 588, 584, 555, 568, 587, 575, 585, 584, 588, 568, 581, 586, 567, 582, 581, 578, 587, 580, 573, 580, 574, 555, 584, 567, 552, 555, 567, 589, 590, 591, 589, 591, 592, 593, 594, 595, 596, 597, 595, 591, 590, 598, 595, 598, 596, 597, 593, 595, 598, 590, 596, 599, 600, 34, 34, 45, 599, 600, 599, 601, 601, 602, 600, 603, 604, 602, 603, 605, 604, 606, 604, 605, 601, 603, 602, 607, 608, 609, 610, 609, 608, 611, 608, 607, 608, 612, 613, 610, 608, 613, 614, 610, 613, 611, 612, 608, 615, 611, 607, 616, 615, 617, 616, 617, 618, 619, 616, 620, 611, 615, 616, 621, 611, 616, 618, 620, 616, 611, 621, 612, 613, 622, 623, 623, 624, 614, 625, 624, 623, 622, 613, 612, 623, 626, 625, 622, 626, 623, 627, 626, 622, 628, 629, 619, 621, 619, 629, 616, 619, 621, 629, 630, 622, 627, 622, 630, 628, 631, 629, 630, 629, 631, 612, 621, 629, 612, 629, 622, 614, 613, 623, 632, 633, 634, 634, 635, 632, 633, 632, 636, 636, 637, 633, 638, 639, 637, 638, 640, 639, 641, 639, 640, 636, 638, 637, 642, 643, 644, 644, 645, 642, 138, 137, 646, 645, 647, 648, 647, 649, 648, 649, 647, 646, 649, 646, 137, 645, 648, 642, 650, 651, 652, 650, 652, 653, 654, 655, 656, 657, 656, 658, 659, 653, 657, 658, 659, 657, 656, 655, 658, 657, 653, 652, 660, 661, 662, 663, 155, 664, 665, 663, 666, 661, 665, 667, 668, 669, 670, 669, 668, 671, 670, 669, 672, 672, 669, 673, 669, 674, 673, 660, 662, 671, 671, 674, 669, 667, 671, 662, 675, 672, 673, 675, 676, 677, 673, 678, 676, 676, 675, 673, 674, 666, 678, 666, 674, 667, 674, 671, 667, 676, 678, 679, 679, 678, 680, 666, 664, 680, 664, 666, 663, 678, 666, 680, 667, 665, 666, 676, 679, 677, 678, 673, 674, 662, 661, 667, 152, 681, 682, 681, 683, 684, 685, 686, 687, 683, 685, 688, 689, 690, 691, 690, 682, 684, 692, 693, 694, 693, 695, 694, 694, 691, 696, 684, 691, 690, 694, 689, 691, 682, 681, 684, 694, 695, 689, 688, 691, 684, 697, 698, 699, 692, 696, 700, 692, 700, 697, 688, 696, 691, 692, 694, 696, 687, 696, 688, 698, 697, 701, 687, 700, 696, 697, 700, 701, 686, 700, 687, 688, 685, 687, 697, 699, 692, 693, 692, 699, 684, 683, 688, 702, 703, 704, 702, 704, 705, 703, 706, 707, 703, 707, 704, 708, 709, 710, 707, 706, 711, 710, 711, 708, 711, 706, 708, 712, 713, 714, 713, 712, 715, 713, 715, 716, 716, 717, 713, 718, 719, 717, 718, 720, 719, 721, 719, 720, 716, 718, 717, 722, 723, 724, 724, 725, 726, 727, 728, 722, 723, 722, 728, 729, 728, 727, 722, 724, 726, 727, 722, 730, 731, 732, 733, 725, 732, 726, 726, 732, 731, 734, 731, 735, 730, 726, 736, 736, 726, 731, 733, 735, 731, 730, 722, 726, 727, 737, 738, 738, 739, 729, 740, 739, 738, 727, 730, 737, 737, 741, 738, 740, 738, 741, 742, 741, 737, 730, 743, 737, 734, 743, 736, 736, 743, 730, 744, 743, 734, 731, 734, 736, 745, 743, 746, 746, 743, 744, 745, 737, 743, 737, 745, 742, 729, 727, 738, 747, 748, 749, 747, 749, 750, 142, 141, 751, 752, 753, 751, 749, 748, 754, 751, 754, 752, 753, 142, 751, 754, 748, 752, 154, 755, 681, 154, 681, 152, 755, 756, 683, 755, 683, 681, 757, 758, 686, 683, 756, 685, 686, 685, 757, 685, 756, 757, 759, 760, 761, 762, 760, 759, 763, 764, 759, 762, 759, 764, 765, 764, 763, 766, 759, 761, 767, 763, 759, 768, 769, 770, 768, 770, 771, 769, 768, 766, 767, 766, 772, 768, 773, 774, 771, 773, 768, 766, 761, 769, 767, 759, 766, 763, 775, 776, 765, 763, 776, 777, 765, 776, 775, 763, 767, 776, 778, 777, 775, 778, 776, 778, 775, 779, 780, 781, 774, 772, 774, 781, 768, 774, 772, 781, 782, 775, 779, 775, 782, 780, 783, 781, 782, 781, 783, 767, 772, 781, 781, 775, 767, 766, 768, 772, 784, 785, 786, 786, 787, 784, 785, 784, 788, 788, 789, 785, 790, 791, 789, 790, 792, 791, 793, 791, 792, 788, 790, 789, 794, 795, 796, 794, 796, 797, 795, 798, 799, 795, 799, 796, 800, 801, 802, 799, 798, 803, 802, 803, 800, 803, 798, 800, 804, 805, 806, 804, 806, 807, 805, 808, 809, 805, 809, 806, 810, 811, 812, 809, 808, 813, 812, 813, 810, 813, 808, 810, 814, 815, 816, 816, 817, 814, 815, 814, 818, 818, 819, 815, 820, 821, 819, 820, 822, 821, 823, 821, 822, 818, 820, 819, 824, 825, 826, 824, 826, 827, 828, 829, 830, 831, 830, 829, 828, 832, 833, 834, 835, 824, 836, 837, 838, 832, 839, 833, 837, 839, 838, 828, 833, 829, 827, 834, 824, 840, 841, 829, 842, 831, 829, 841, 842, 829, 843, 844, 841, 842, 841, 844, 833, 840, 829, 843, 841, 826, 837, 845, 833, 840, 833, 845, 827, 826, 840, 846, 845, 837, 845, 846, 827, 847, 843, 848, 827, 846, 834, 844, 843, 847, 827, 840, 845, 826, 841, 840, 836, 846, 837, 839, 837, 833, 825, 848, 843, 826, 825, 843, 849, 850, 851, 852, 851, 850, 853, 850, 849, 850, 854, 855, 852, 850, 855, 856, 852, 855, 853, 854, 850, 857, 853, 849, 858, 857, 859, 858, 859, 860, 861, 858, 862, 853, 857, 858, 863, 853, 858, 860, 862, 858, 853, 863, 854, 855, 864, 865, 865, 866, 856, 867, 866, 865, 864, 855, 854, 865, 868, 867, 864, 868, 865, 869, 868, 864, 870, 863, 861, 870, 864, 854, 870, 854, 863, 858, 861, 863, 871, 872, 870, 864, 870, 872, 870, 873, 871, 861, 873, 870, 872, 869, 864, 856, 855, 865, 859, 824, 26, 26, 57, 859, 824, 859, 857, 857, 825, 824, 849, 848, 825, 849, 874, 848, 875, 848, 874, 857, 849, 825, 102, 876, 100, 876, 877, 100, 877, 876, 878, 877, 878, 879, 880, 881, 882, 882, 879, 880, 883, 882, 881, 880, 879, 878, 115, 884, 885, 886, 887, 888, 887, 889, 890, 884, 886, 885, 891, 892, 893, 894, 895, 896, 895, 897, 885, 898, 899, 892, 899, 893, 892, 900, 892, 896, 885, 896, 895, 892, 894, 896, 888, 896, 885, 897, 115, 885, 892, 891, 894, 898, 900, 901, 900, 898, 892, 888, 900, 896, 900, 888, 890, 902, 898, 903, 889, 903, 901, 903, 898, 901, 900, 890, 901, 889, 902, 903, 888, 887, 890, 899, 898, 902, 889, 901, 890, 885, 886, 888, 904, 905, 906, 904, 906, 907, 905, 908, 909, 905, 909, 906, 910, 911, 912, 909, 908, 913, 912, 913, 910, 913, 908, 910, 914, 915, 894, 914, 894, 916, 915, 917, 895, 915, 895, 894, 918, 919, 920, 895, 917, 897, 920, 897, 918, 897, 917, 918, 921, 887, 922, 921, 922, 923, 924, 922, 887, 924, 887, 886, 884, 925, 926, 924, 886, 927, 926, 927, 884, 927, 886, 884, 928, 929, 930, 928, 930, 931, 103, 101, 932, 933, 934, 932, 935, 931, 933, 932, 935, 933, 934, 103, 932, 933, 931, 930, 936, 937, 938, 939, 936, 940, 941, 112, 942, 937, 941, 942, 943, 944, 945, 940, 944, 939, 945, 944, 946, 943, 945, 947, 947, 945, 948, 944, 938, 946, 946, 948, 945, 938, 944, 940, 948, 946, 949, 950, 947, 948, 951, 950, 952, 952, 949, 915, 952, 948, 949, 942, 949, 946, 942, 938, 937, 950, 948, 952, 949, 942, 917, 915, 953, 952, 918, 917, 942, 915, 949, 917, 942, 112, 918, 952, 953, 951, 942, 946, 938, 940, 936, 938, 954, 955, 956, 957, 956, 955, 958, 959, 956, 958, 956, 957, 958, 960, 961, 959, 962, 956, 960, 958, 963, 956, 962, 954, 954, 962, 964, 964, 965, 927, 964, 962, 965, 927, 966, 964, 965, 924, 927, 967, 965, 962, 959, 961, 968, 922, 924, 967, 967, 968, 922, 967, 924, 965, 959, 967, 962, 959, 958, 961, 969, 960, 970, 963, 971, 970, 972, 961, 969, 961, 960, 969, 970, 960, 963, 968, 972, 973, 968, 961, 972, 968, 973, 922, 968, 967, 959, 963, 974, 971, 975, 976, 936, 975, 936, 977, 113, 112, 941, 978, 979, 941, 936, 976, 937, 941, 937, 978, 979, 113, 941, 937, 976, 978, 980, 981, 982, 980, 982, 983, 114, 113, 984, 985, 986, 984, 982, 981, 987, 984, 987, 985, 986, 114, 984, 987, 981, 985, 988, 989, 990, 991, 990, 989, 992, 993, 990, 992, 990, 991, 994, 992, 995, 993, 996, 990, 995, 992, 997, 990, 996, 988, 988, 996, 998, 998, 999, 1000, 998, 996, 999, 976, 1000, 999, 999, 1001, 976, 994, 1002, 993, 994, 993, 992, 1001, 978, 976, 1002, 978, 1001, 993, 1002, 1001, 1001, 999, 996, 993, 1001, 996, 995, 1003, 994, 1004, 1005, 997, 1006, 994, 1003, 1003, 995, 1005, 1002, 1006, 1007, 994, 1006, 1002, 1007, 979, 1002, 1002, 979, 978, 1005, 995, 997, 997, 1008, 1004, 1009, 1010, 1011, 1010, 1012, 1011, 1012, 1010, 1013, 1012, 1013, 1014, 1015, 1016, 1017, 1014, 1013, 1018, 1017, 1018, 1015, 1018, 1013, 1015, 1019, 1020, 1021, 1019, 1021, 1022, 1023, 1021, 1020, 1023, 1020, 1024, 1025, 1026, 1027, 1027, 1023, 1025, 1028, 1027, 1026, 1025, 1023, 1024, 1029, 1030, 1031, 1029, 1031, 1032, 158, 157, 1033, 1034, 1035, 1033, 1031, 1030, 1036, 1033, 1036, 1034, 1035, 158, 1033, 1036, 1030, 1034, 1037, 1038, 1039, 1040, 1038, 1037, 1041, 1042, 1037, 1040, 1037, 1042, 1043, 1042, 1041, 1044, 1037, 1039, 1045, 1041, 1037, 1046, 1044, 1047, 1048, 1047, 1049, 1050, 1048, 1049, 1046, 1047, 1048, 1045, 1046, 1051, 1048, 1050, 1052, 1046, 1037, 1044, 1045, 1037, 1046, 1041, 1053, 1054, 1043, 1041, 1054, 1055, 1043, 1054, 1053, 1041, 1045, 1054, 1056, 1055, 1053, 1056, 1054, 1056, 1053, 1057, 1058, 1059, 1052, 1051, 1052, 1059, 1048, 1052, 1051, 1059, 1060, 1053, 1057, 1053, 1060, 1058, 1061, 1059, 1060, 1059, 1061, 1045, 1051, 1059, 1059, 1053, 1045, 1046, 1048, 1051, 1062, 1063, 1064, 1062, 1064, 1065, 1063, 1066, 1067, 1063, 1067, 1064, 1068, 1069, 1070, 1067, 1066, 1071, 1070, 1071, 1068, 1071, 1066, 1068, 1072, 1073, 1074, 1075, 1072, 1076, 1074, 1076, 1072, 1072, 1077, 1073, 1078, 1079, 1080, 1080, 1077, 1081, 1080, 1081, 1078, 1073, 1077, 1080, 1082, 1083, 556, 1082, 556, 551, 1084, 1085, 1082, 1083, 1082, 1085, 1086, 1085, 1084, 1087, 1082, 551, 1084, 1082, 1088, 1089, 1090, 549, 1091, 549, 1090, 1087, 1092, 1088, 1082, 1087, 1088, 1093, 1091, 1090, 549, 1091, 1087, 1087, 551, 549, 1092, 1087, 1091, 1084, 1094, 1095, 1095, 1096, 1086, 1097, 1096, 1095, 1084, 1088, 1094, 1094, 1098, 1095, 1097, 1095, 1098, 1099, 1098, 1094, 1088, 1100, 1094, 1093, 1100, 1092, 1092, 1100, 1088, 1101, 1100, 1093, 1091, 1093, 1092, 1102, 1100, 1103, 1103, 1100, 1101, 1102, 1094, 1100, 1094, 1102, 1099, 1086, 1084, 1095, 1104, 1105, 1106, 1106, 1105, 1107, 1104, 1106, 590, 590, 1106, 596, 1108, 1107, 1109, 596, 1106, 1108, 1106, 1107, 1108, 596, 1108, 597, 1110, 1111, 1105, 1112, 1110, 1113, 1113, 1110, 1105, 1114, 1111, 1112, 1112, 1111, 1110, 1111, 1107, 1105, 1107, 1111, 1115, 1108, 1109, 1116, 1109, 1107, 1115, 1116, 1109, 1117, 597, 1116, 593, 593, 1116, 1117, 1118, 1115, 1119, 1118, 1117, 1109, 1115, 1118, 1109, 1116, 597, 1108, 1119, 1120, 1121, 1119, 1115, 1120, 1120, 1115, 1114, 1115, 1111, 1114, 1122, 1123, 1124, 1122, 1124, 1125, 162, 161, 1126, 1127, 1128, 1129, 1129, 1125, 1127, 1126, 1129, 1128, 1128, 162, 1126, 1127, 1125, 1124, 1019, 1130, 1131, 1130, 1132, 1133, 1131, 1134, 1020, 1131, 1020, 1019, 1133, 1135, 1131, 1136, 1133, 1132, 1131, 1130, 1133, 1136, 1137, 1133, 1132, 1138, 1136, 1138, 1139, 1140, 1140, 1141, 1136, 1140, 1136, 1138, 1136, 1141, 1137, 1142, 1024, 1134, 1134, 1024, 1020, 1135, 1134, 1131, 1143, 1134, 1135, 1026, 1025, 1142, 1142, 1143, 1026, 1142, 1025, 1024, 1134, 1143, 1142, 1026, 1143, 1144, 1137, 1144, 1135, 1141, 1145, 1137, 1145, 1144, 1137, 1145, 1026, 1144, 1144, 1143, 1135, 1135, 1133, 1137, 1146, 1147, 1148, 1148, 1147, 1149, 1149, 1150, 1151, 1150, 1149, 1147, 1151, 1150, 1152, 1151, 1153, 1149, 1148, 1149, 1154, 1155, 1154, 1156, 1157, 1155, 1158, 1156, 1158, 1155, 1159, 1156, 1153, 1160, 1158, 1159, 1154, 1149, 1156, 1156, 1149, 1153, 1161, 1162, 1151, 1161, 1151, 1152, 1161, 1152, 1163, 1151, 1162, 1153, 1161, 1164, 1162, 1164, 1161, 1163, 1162, 1164, 1165, 1153, 1162, 1166, 1166, 1167, 1159, 1159, 1153, 1166, 1168, 1166, 1169, 1169, 1166, 1165, 1162, 1165, 1166, 1159, 1158, 1156, 1170, 1171, 1147, 1170, 1147, 1172, 1171, 1173, 1150, 1171, 1150, 1147, 1174, 1175, 1176, 1150, 1173, 1152, 1176, 1152, 1174, 1152, 1173, 1174, 1177, 1178, 1179, 1180, 1177, 1181, 1182, 1183, 1179, 1177, 1183, 1181, 1184, 1181, 1183, 1185, 1184, 1186, 1187, 1185, 1171, 1171, 1186, 1173, 1186, 1171, 1185, 1182, 1173, 1186, 1184, 1183, 1186, 1178, 1177, 1180, 1188, 1189, 1178, 1178, 1180, 1188, 1179, 1178, 1189, 1179, 1183, 1177, 1190, 1191, 1188, 1191, 1192, 1188, 1189, 1188, 1192, 1174, 1182, 1193, 1193, 1179, 1189, 1182, 1179, 1193, 1182, 1174, 1173, 1193, 1194, 1195, 1194, 1193, 1189, 1193, 1195, 1174, 1189, 1192, 1194, 1182, 1186, 1183, 1196, 1197, 1198, 1198, 1197, 1199, 1199, 1200, 1201, 1200, 1199, 1197, 1201, 1200, 1202, 1201, 1203, 1199, 1198, 1199, 1204, 1205, 1204, 1206, 1207, 1205, 1208, 1206, 1208, 1205, 1209, 1206, 1203, 1210, 1208, 1209, 1204, 1199, 1206, 1206, 1199, 1203, 1211, 1212, 1201, 1211, 1201, 1202, 1211, 1202, 1213, 1201, 1212, 1203, 1211, 1214, 1212, 1214, 1211, 1213, 1212, 1214, 1215, 1203, 1212, 1216, 1216, 1217, 1209, 1209, 1203, 1216, 1218, 1216, 1219, 1219, 1216, 1215, 1212, 1215, 1216, 1209, 1208, 1206, 1220, 1221, 1197, 1220, 1197, 1222, 1221, 1223, 1200, 1221, 1200, 1197, 1224, 1225, 1226, 1200, 1223, 1202, 1226, 1202, 1224, 1202, 1223, 1224, 1227, 1228, 1229, 1230, 1227, 1231, 1232, 1233, 1229, 1227, 1233, 1231, 1234, 1231, 1233, 1235, 1234, 1236, 1237, 1235, 1221, 1221, 1236, 1223, 1236, 1221, 1235, 1232, 1223, 1236, 1234, 1233, 1236, 1228, 1227, 1230, 1238, 1239, 1228, 1228, 1230, 1238, 1229, 1228, 1239, 1229, 1233, 1227, 1240, 1241, 1238, 1241, 1242, 1238, 1239, 1238, 1242, 1224, 1232, 1243, 1243, 1229, 1239, 1232, 1229, 1243, 1232, 1224, 1223, 1243, 1244, 1245, 1244, 1243, 1239, 1243, 1245, 1224, 1239, 1242, 1244, 1232, 1236, 1233, 1246, 1247, 1248, 1248, 1247, 1249, 1249, 1250, 1251, 1250, 1249, 1247, 1251, 1250, 1252, 1251, 1253, 1249, 1248, 1249, 1254, 1255, 1254, 1256, 1257, 1255, 1258, 1256, 1258, 1255, 1259, 1256, 1253, 1260, 1258, 1259, 1254, 1249, 1256, 1256, 1249, 1253, 1261, 1262, 1251, 1261, 1251, 1252, 1261, 1252, 1263, 1251, 1262, 1253, 1261, 1264, 1262, 1264, 1261, 1263, 1262, 1264, 1265, 1253, 1262, 1266, 1266, 1267, 1259, 1259, 1253, 1266, 1268, 1266, 1269, 1269, 1266, 1265, 1262, 1265, 1266, 1259, 1258, 1256, 1270, 1271, 1272, 1271, 1273, 1272, 1273, 1271, 1274, 1273, 1274, 1275, 1276, 1277, 1278, 1278, 1275, 1276, 1279, 1278, 1277, 1276, 1275, 1274, 1280, 1281, 1282, 1283, 1280, 1284, 1285, 1286, 1282, 1280, 1286, 1284, 1287, 1284, 1286, 1288, 1287, 1289, 1290, 1288, 1291, 1291, 1289, 1292, 1289, 1291, 1288, 1285, 1292, 1289, 1287, 1286, 1289, 1281, 1280, 1283, 1293, 1294, 1281, 1281, 1283, 1293, 1282, 1281, 1294, 1282, 1286, 1280, 1295, 1296, 1293, 1296, 1297, 1293, 1294, 1293, 1297, 1298, 1285, 1299, 1299, 1282, 1294, 1285, 1282, 1299, 1285, 1298, 1292, 1299, 1300, 1301, 1300, 1299, 1294, 1299, 1301, 1298, 1294, 1297, 1300, 1285, 1289, 1286, 1302, 1303, 1304, 1304, 1303, 1305, 1302, 1304, 344, 344, 1304, 348, 1306, 1305, 1307, 348, 1304, 1306, 1304, 1305, 1306, 348, 1306, 349, 1308, 1309, 1303, 1310, 1308, 1311, 1311, 1308, 1303, 1312, 1309, 1310, 1310, 1309, 1308, 1309, 1305, 1303, 1305, 1309, 1313, 1306, 1307, 1314, 1307, 1305, 1313, 1314, 1307, 1315, 349, 1314, 126, 126, 1314, 1315, 1316, 1313, 1317, 1316, 1315, 1307, 1313, 1316, 1307, 1314, 349, 1306, 1317, 1318, 1319, 1317, 1313, 1318, 1318, 1313, 1312, 1313, 1309, 1312, 1320, 1315, 1321, 1320, 1321, 1322, 1315, 1316, 1323, 1315, 1323, 1321, 1317, 1324, 1325, 1323, 1316, 1326, 1325, 1326, 1317, 1326, 1316, 1317, 127, 1321, 1327, 1321, 1323, 1328, 1327, 1329, 351, 1327, 351, 127, 1328, 1330, 1327, 1331, 1328, 1323, 1327, 1321, 1328, 1331, 1332, 1328, 1323, 1326, 1331, 1326, 1333, 1334, 1334, 1335, 1331, 1334, 1331, 1326, 1331, 1335, 1332, 1336, 353, 1329, 1329, 353, 351, 1330, 1329, 1327, 1337, 1329, 1330, 356, 355, 1336, 1336, 1337, 356, 1336, 355, 353, 1329, 1337, 1336, 356, 1337, 1338, 1332, 1338, 1330, 1335, 1339, 1332, 1339, 1338, 1332, 1339, 356, 1338, 1338, 1337, 1330, 1330, 1328, 1332, 1340, 1341, 1342, 1343, 1340, 1344, 1345, 1346, 1342, 1340, 1346, 1344, 1347, 1344, 1346, 1348, 1347, 1349, 1350, 1348, 1351, 1351, 1349, 1352, 1349, 1351, 1348, 1345, 1352, 1349, 1347, 1346, 1349, 1341, 1340, 1343, 1353, 1354, 1341, 1341, 1343, 1353, 1342, 1341, 1354, 1342, 1346, 1340, 1355, 1356, 1353, 1356, 1357, 1353, 1354, 1353, 1357, 1358, 1345, 1359, 1359, 1342, 1354, 1345, 1342, 1359, 1345, 1358, 1352, 1359, 1360, 1361, 1360, 1359, 1354, 1359, 1361, 1358, 1354, 1357, 1360, 1345, 1349, 1346, 1362, 1363, 1364, 1364, 1365, 1362, 1363, 1366, 1364, 1367, 1368, 1369, 1366, 1363, 1370, 1369, 1370, 1367, 1370, 1363, 1367, 192, 1371, 195, 1372, 1371, 1373, 1371, 1372, 195, 1374, 1375, 1376, 1374, 1376, 1372, 1376, 1375, 1377, 1374, 1372, 1373, 187, 1374, 1378, 1374, 1373, 1379, 1378, 1380, 269, 1378, 269, 187, 1379, 1381, 1378, 1382, 1379, 1373, 1378, 1374, 1379, 1382, 1383, 1379, 1373, 1371, 1382, 1371, 1384, 1385, 1385, 1386, 1382, 1385, 1382, 1371, 1382, 1386, 1383, 1387, 271, 1380, 1380, 271, 269, 1381, 1380, 1378, 1388, 1380, 1381, 274, 273, 1387, 1387, 1388, 274, 1387, 273, 271, 1380, 1388, 1387, 274, 1388, 1389, 1383, 1389, 1381, 1386, 1390, 1383, 1390, 1389, 1383, 1390, 274, 1389, 1389, 1388, 1381, 1381, 1379, 1383, 1391, 1392, 1393, 1391, 1393, 1394, 182, 181, 1395, 1396, 1397, 1395, 1393, 1392, 1398, 1395, 1398, 1396, 1397, 182, 1395, 1398, 1392, 1396, 1399, 1400, 1401, 1402, 1403, 1401, 1403, 1404, 1405, 1406, 1405, 1407, 1407, 1405, 1408, 1400, 1402, 1401, 1402, 1409, 1410, 1409, 1402, 1400, 1404, 1402, 1411, 1411, 1402, 1410, 1409, 1412, 1410, 1402, 1404, 1403, 1412, 1413, 1414, 1415, 1410, 1414, 1416, 1414, 1413, 1412, 1414, 1410, 1415, 1414, 1416, 1415, 1417, 1411, 1415, 1411, 1410, 1408, 1404, 1418, 1417, 1418, 1411, 1418, 1404, 1411, 1419, 1420, 1417, 1417, 1421, 1418, 1421, 1417, 1420, 1419, 1417, 1415, 1415, 1416, 1419, 1418, 1407, 1408, 1404, 1408, 1405, 1407, 1422, 1406]
        rel material:binding = </tableSim/Looks/TableMaterial>
        uniform token orientation = "rightHanded"
        point3f[] points = [(0.254, -0.29979998, -0.0255), (0.2536194, -0.3017134, -0.0255), (0.25253555, -0.30333555, -0.0255), (0.2509134, -0.3044194, -0.0255), (0.249, -0.30479997, -0.0255), (0.24207108, -0.29287106, -0.0255), (0.23882683, -0.2950388, -0.0255), (0.2442388, -0.28962684, -0.0255), (0.245, -0.28579998, -0.0255), (0.245, -0.26079997, -0.0255), (0.2442388, -0.25697318, -0.0255), (0.24207108, -0.25372893, -0.0255), (0.23882683, -0.2515612, -0.0255), (0.23882683, 0.2515612, -0.0255), (0.24207108, 0.25372893, -0.0255), (0.254, 0.29979998, -0.0255), (0.235, -0.2958, -0.0255), (0.21, -0.2958, -0.0255), (0.20292893, -0.29287106, -0.0255), (0.20617317, -0.2950388, -0.0255), (-0.20617317, -0.2950388, -0.0255), (0.2007612, -0.28962684, -0.0255), (-0.2007612, -0.28962684, -0.0255), (0.20617317, -0.2515612, -0.0255), (0.20292893, -0.25372893, -0.0255), (0.20292893, 0.25372893, -0.0255), (0.2, -0.28579998, -0.0255), (-0.2, -0.28579998, -0.0255), (-0.2, -0.26079997, -0.0255), (0.2007612, -0.25697318, -0.0255), (-0.2007612, -0.25697318, -0.0255), (-0.2, 0.2508, -0.0255), (-0.249, -0.30479997, -0.0255), (0.235, -0.2508, -0.0255), (0.235, 0.2508, -0.0255), (0.2442388, 0.25697318, -0.0255), (0.245, 0.26079997, -0.0255), (0.245, 0.28579998, -0.0255), (0.2442388, 0.28962684, -0.0255), (0.25253555, 0.30333555, -0.0255), (0.2536194, 0.3017134, -0.0255), (0.2509134, 0.3044194, -0.0255), (0.249, 0.30479997, -0.0255), (0.24207108, 0.29287106, -0.0255), (0.23882683, 0.2950388, -0.0255), (0.21, 0.2508, -0.0255), (0.21, -0.2508, -0.0255), (0.20617317, 0.2515612, -0.0255), (0.2007612, 0.25697318, -0.0255), (0.235, 0.2958, -0.0255), (0.21, 0.2958, -0.0255), (0.20292893, 0.29287106, -0.0255), (0.2007612, 0.28962684, -0.0255), (-0.2007612, 0.28962684, -0.0255), (0.20617317, 0.2950388, -0.0255), (-0.20292893, 0.29287106, -0.0255), (-0.249, 0.30479997, -0.0255), (0.2, -0.26079997, -0.0255), (-0.20292893, -0.29287106, -0.0255), (-0.235, -0.2958, -0.0255), (-0.21, -0.2958, -0.0255), (-0.23882683, -0.2950388, -0.0255), (-0.20292893, -0.25372893, -0.0255), (-0.20617317, -0.2515612, -0.0255), (-0.21, -0.2508, -0.0255), (-0.254, -0.29979998, -0.0255), (-0.24207108, -0.29287106, -0.0255), (-0.2509134, -0.3044194, -0.0255), (-0.25253555, -0.30333555, -0.0255), (-0.2536194, -0.3017134, -0.0255), (-0.2442388, -0.28962684, -0.0255), (-0.23882683, -0.2515612, -0.0255), (-0.24207108, -0.25372893, -0.0255), (-0.24207108, 0.25372893, -0.0255), (-0.245, -0.26079997, -0.0255), (-0.245, -0.28579998, -0.0255), (-0.2442388, -0.25697318, -0.0255), (-0.254, 0.29979998, -0.0255), (0.2, 0.28579998, -0.0255), (0.2, 0.26079997, -0.0255), (-0.2, 0.28579998, -0.0255), (-0.235, 0.2508, -0.0255), (-0.235, -0.2508, -0.0255), (-0.20617317, 0.2950388, -0.0255), (-0.235, 0.2958, -0.0255), (-0.23882683, 0.2950388, -0.0255), (-0.21, 0.2958, -0.0255), (-0.23882683, 0.2515612, -0.0255), (-0.245, 0.26079997, -0.0255), (-0.2442388, 0.25697318, -0.0255), (-0.245, 0.28579998, -0.0255), (-0.2442388, 0.28962684, -0.0255), (-0.2509134, 0.3044194, -0.0255), (-0.24207108, 0.29287106, -0.0255), (-0.25253555, 0.30333555, -0.0255), (-0.2536194, 0.3017134, -0.0255), (-0.249, 0.30479997, -0.0255), (-0.249, 0.30479997, -0.005), (0.249, 0.30479997, -0.005), (0.249, 0.30479997, -0.0255), (0.254, 0.29979998, -0.005), (0.254, -0.29979998, -0.005), (0.254, 0.29979998, -0.0255), (0.254, -0.29979998, -0.0255), (-0.249, -0.30479997, -0.005), (-0.249, -0.30479997, -0.0255), (0.249, -0.30479997, -0.0255), (0.249, -0.30479997, -0.005), (-0.254, 0.29979998, -0.0255), (-0.254, -0.29979998, -0.0255), (-0.254, -0.29979998, -0.005), (-0.254, 0.29979998, -0.005), (-0.249, 0.29979998, 0), (-0.249, -0.29979998, 0), (0.249, -0.29979998, 0), (0.249, 0.29979998, 0), (-0.24, -0.26079997, -0.0305), (-0.24, -0.26079997, -0.6155), (-0.24, -0.28579998, -0.6155), (-0.24, -0.28579998, -0.0305), (-0.21, -0.2558, -0.6155), (-0.235, -0.2558, -0.6155), (-0.235, -0.2558, -0.0305), (-0.21, -0.2558, -0.0305), (-0.205, -0.26079997, -0.0305), (-0.205, -0.28579998, -0.0305), (-0.205, -0.28579998, -0.6155), (-0.205, -0.26079997, -0.6155), (-0.235, -0.29079998, -0.0305), (-0.235, -0.29079998, -0.6155), (-0.21, -0.29079998, -0.6155), (-0.21, -0.29079998, -0.0305), (-0.21, -0.26079997, -0.6205), (-0.21, -0.28579998, -0.6205), (-0.235, -0.26079997, -0.6205), (-0.235, -0.28579998, -0.6205), (0.24, -0.28579998, -0.0305), (0.24, -0.28579998, -0.6155), (0.24, -0.26079997, -0.6155), (0.24, -0.26079997, -0.0305), (0.21, -0.29079998, -0.0305), (0.21, -0.29079998, -0.6155), (0.235, -0.29079998, -0.6155), (0.235, -0.29079998, -0.0305), (0.205, -0.26079997, -0.6155), (0.205, -0.28579998, -0.6155), (0.205, -0.28579998, -0.0305), (0.205, -0.26079997, -0.0305), (0.235, -0.2558, -0.6155), (0.21, -0.2558, -0.6155), (0.21, -0.2558, -0.0305), (0.235, -0.2558, -0.0305), (0.235, -0.26079997, -0.6205), (0.21, -0.28579998, -0.6205), (0.21, -0.26079997, -0.6205), (0.235, -0.28579998, -0.6205), (0.235, 0.29079998, -0.0305), (0.235, 0.29079998, -0.6155), (0.21, 0.29079998, -0.6155), (0.21, 0.29079998, -0.0305), (0.24, 0.26079997, -0.0305), (0.24, 0.26079997, -0.6155), (0.24, 0.28579998, -0.6155), (0.24, 0.28579998, -0.0305), (0.235, 0.2558, -0.0305), (0.21, 0.2558, -0.0305), (0.21, 0.2558, -0.6155), (0.235, 0.2558, -0.6155), (0.205, 0.28579998, -0.6155), (0.205, 0.26079997, -0.6155), (0.205, 0.26079997, -0.0305), (0.205, 0.28579998, -0.0305), (0.235, 0.26079997, -0.6205), (0.21, 0.26079997, -0.6205), (0.21, 0.28579998, -0.6205), (0.235, 0.28579998, -0.6205), (-0.24, 0.28579998, -0.0305), (-0.24, 0.28579998, -0.6155), (-0.24, 0.26079997, -0.6155), (-0.24, 0.26079997, -0.0305), (-0.21, 0.29079998, -0.0305), (-0.21, 0.29079998, -0.6155), (-0.235, 0.29079998, -0.6155), (-0.235, 0.29079998, -0.0305), (-0.205, 0.28579998, -0.0305), (-0.205, 0.2558, -0.0305), (-0.205, 0.2558, -0.6155), (-0.205, 0.28579998, -0.6155), (-0.205, 0.2558, -0.0305), (-0.235, 0.2558, -0.0305), (-0.235, 0.2558, -0.6155), (-0.205, 0.2558, -0.6155), (-0.21, 0.28579998, -0.6205), (-0.235, 0.26079997, -0.6205), (-0.235, 0.28579998, -0.6205), (-0.21, 0.26079997, -0.6205), (-0.235, 0.29079998, -0.6155), (-0.23691343, 0.2904194, -0.6155), (-0.23691343, 0.2904194, -0.0305), (-0.235, 0.29079998, -0.0305), (-0.23853554, 0.28933555, -0.6155), (-0.23853554, 0.28933555, -0.0305), (-0.2396194, 0.2877134, -0.6155), (-0.24, 0.28579998, -0.6155), (-0.2396194, 0.2877134, -0.0305), (-0.24, 0.28579998, -0.0305), (-0.23691343, 0.28579998, -0.6201194), (-0.235, 0.28579998, -0.6205), (-0.235, 0.26079997, -0.6205), (-0.23691343, 0.26079997, -0.6201194), (-0.2396194, 0.26079997, -0.6174134), (-0.23853554, 0.26079997, -0.61903554), (-0.23853554, 0.28579998, -0.61903554), (-0.2396194, 0.28579998, -0.6174134), (-0.2403806, 0.28579998, -0.028586581), (-0.23997103, 0.28785908, -0.028586581), (-0.24, 0.28579998, -0.0305), (-0.2396194, 0.2877134, -0.0305), (-0.24097238, 0.28827384, -0.026964467), (-0.23957108, 0.29037106, -0.026964467), (-0.23880465, 0.28960466, -0.028586581), (-0.23853554, 0.28933555, -0.0305), (-0.24146447, 0.28579998, -0.026964467), (-0.24247102, 0.2888946, -0.025880601), (-0.24308658, 0.28579998, -0.025880601), (-0.245, 0.28579998, -0.0255), (-0.24207108, 0.29287106, -0.0255), (-0.2442388, 0.28962684, -0.0255), (-0.24071808, 0.29151806, -0.025880601), (-0.23747385, 0.2917724, -0.026964467), (-0.23705907, 0.29077104, -0.028586581), (-0.23691343, 0.2904194, -0.0305), (-0.235, 0.29079998, -0.0305), (-0.235, 0.2911806, -0.028586581), (-0.235, 0.29226446, -0.026964467), (-0.2380946, 0.29327103, -0.025880601), (-0.23882683, 0.2950388, -0.0255), (-0.235, 0.2938866, -0.025880601), (-0.235, 0.2958, -0.0255), (-0.24, 0.26079997, -0.6155), (-0.2396194, 0.2588866, -0.6155), (-0.2396194, 0.2588866, -0.0305), (-0.24, 0.26079997, -0.0305), (-0.23853554, 0.25726447, -0.6155), (-0.23853554, 0.25726447, -0.0305), (-0.23691343, 0.2561806, -0.6155), (-0.235, 0.2558, -0.6155), (-0.235, 0.2558, -0.0305), (-0.23691343, 0.2561806, -0.0305), (-0.245, 0.28579998, -0.0255), (-0.24308658, 0.26079997, -0.025880601), (-0.245, 0.26079997, -0.0255), (-0.24308658, 0.28579998, -0.025880601), (-0.24146447, 0.28579998, -0.026964467), (-0.24146447, 0.26079997, -0.026964467), (-0.2403806, 0.28579998, -0.028586581), (-0.2403806, 0.26079997, -0.028586581), (-0.24, 0.28579998, -0.0305), (-0.24, 0.26079997, -0.0305), (-0.21, 0.2938866, -0.025880601), (-0.235, 0.2938866, -0.025880601), (-0.235, 0.2958, -0.0255), (-0.21, 0.2958, -0.0255), (-0.235, 0.29226446, -0.026964467), (-0.21, 0.29226446, -0.026964467), (-0.21, 0.29079998, -0.0305), (-0.235, 0.29079998, -0.0305), (-0.235, 0.2911806, -0.028586581), (-0.21, 0.2911806, -0.028586581), (-0.2053806, 0.2877134, -0.6155), (-0.2053806, 0.2877134, -0.0305), (-0.20646447, 0.28933555, -0.6155), (-0.20646447, 0.28933555, -0.0305), (-0.20808658, 0.2904194, -0.6155), (-0.21, 0.29079998, -0.6155), (-0.20808658, 0.2904194, -0.0305), (-0.21, 0.29079998, -0.0305), (-0.24308658, 0.26079997, -0.025880601), (-0.24146447, 0.26079997, -0.026964467), (-0.24097238, 0.25832614, -0.026964467), (-0.24247102, 0.25770542, -0.025880601), (-0.235, 0.2554194, -0.028586581), (-0.23705907, 0.25582898, -0.028586581), (-0.235, 0.2558, -0.0305), (-0.23691343, 0.2561806, -0.0305), (-0.235, 0.25433555, -0.026964467), (-0.23747385, 0.25482762, -0.026964467), (-0.2442388, 0.25697318, -0.0255), (-0.245, 0.26079997, -0.0255), (-0.235, 0.2508, -0.0255), (-0.23882683, 0.2515612, -0.0255), (-0.235, 0.2527134, -0.025880601), (-0.2380946, 0.25332898, -0.025880601), (-0.23957108, 0.25622895, -0.026964467), (-0.23880465, 0.25699532, -0.028586581), (-0.23853554, 0.25726447, -0.0305), (-0.23997103, 0.25874093, -0.028586581), (-0.2396194, 0.2588866, -0.0305), (-0.24071808, 0.25508192, -0.025880601), (-0.24207108, 0.25372893, -0.0255), (-0.24, 0.26079997, -0.0305), (-0.2403806, 0.26079997, -0.028586581), (-0.20794094, 0.29077104, -0.028586581), (-0.21, 0.29079998, -0.0305), (-0.21, 0.2911806, -0.028586581), (-0.20808658, 0.2904194, -0.0305), (-0.20619534, 0.28960466, -0.028586581), (-0.20646447, 0.28933555, -0.0305), (-0.2053806, 0.2877134, -0.0305), (-0.21, 0.29226446, -0.026964467), (-0.20542893, 0.29037106, -0.026964467), (-0.20752615, 0.2917724, -0.026964467), (-0.21, 0.2938866, -0.025880601), (-0.2069054, 0.29327103, -0.025880601), (-0.21, 0.2958, -0.0255), (-0.20617317, 0.2950388, -0.0255), (-0.20428193, 0.29151806, -0.025880601), (-0.20292893, 0.29287106, -0.0255), (-0.20402762, 0.28827384, -0.026964467), (-0.20502898, 0.28785908, -0.028586581), (-0.205, 0.28579998, -0.0305), (-0.2046194, 0.28579998, -0.028586581), (-0.20353554, 0.28579998, -0.026964467), (-0.2007612, 0.28962684, -0.0255), (-0.20252898, 0.2888946, -0.025880601), (-0.20191342, 0.28579998, -0.025880601), (-0.2, 0.28579998, -0.0255), (-0.235, 0.2527134, -0.025880601), (-0.235, 0.25433555, -0.026964467), (-0.20353554, 0.25433555, -0.026964467), (-0.235, 0.2554194, -0.028586581), (-0.20464894, 0.25544894, -0.028659526), (-0.235, 0.2558, -0.0305), (-0.205, 0.2558, -0.0305), (-0.2, 0.2508, -0.0255), (-0.20191342, 0.28579998, -0.025880601), (-0.2, 0.28579998, -0.0255), (-0.20353554, 0.25433555, -0.026964467), (-0.20353554, 0.28579998, -0.026964467), (-0.20464894, 0.25544894, -0.028659526), (-0.2046194, 0.28579998, -0.028586581), (-0.205, 0.2558, -0.0305), (-0.205, 0.28579998, -0.0305), (-0.21, -0.29079998, -0.6155), (-0.20808658, -0.2904194, -0.6155), (-0.20808658, -0.2904194, -0.0305), (-0.21, -0.29079998, -0.0305), (-0.2053806, -0.2877134, -0.0305), (-0.20646447, -0.28933555, -0.6155), (-0.2053806, -0.2877134, -0.6155), (-0.20646447, -0.28933555, -0.0305), (-0.2053806, -0.2588866, -0.6155), (-0.2053806, -0.2588866, -0.0305), (-0.20646447, -0.25726447, -0.6155), (-0.20646447, -0.25726447, -0.0305), (-0.20808658, -0.2561806, -0.6155), (-0.21, -0.2558, -0.6155), (-0.20808658, -0.2561806, -0.0305), (-0.21, -0.2558, -0.0305), (-0.20191342, -0.28579998, -0.025880601), (-0.20191342, -0.26079997, -0.025880601), (-0.2, -0.26079997, -0.0255), (-0.2, -0.28579998, -0.0255), (-0.20353554, -0.28579998, -0.026964467), (-0.20353554, -0.26079997, -0.026964467), (-0.2046194, -0.28579998, -0.028586581), (-0.2046194, -0.26079997, -0.028586581), (-0.205, -0.28579998, -0.0305), (-0.205, -0.26079997, -0.0305), (-0.20502898, -0.28785908, -0.028586581), (-0.205, -0.28579998, -0.0305), (-0.2046194, -0.28579998, -0.028586581), (-0.20353554, -0.28579998, -0.026964467), (-0.20402762, -0.28827384, -0.026964467), (-0.20619534, -0.28960466, -0.028586581), (-0.2053806, -0.2877134, -0.0305), (-0.20646447, -0.28933555, -0.0305), (-0.20542893, -0.29037106, -0.026964467), (-0.20252898, -0.2888946, -0.025880601), (-0.20191342, -0.28579998, -0.025880601), (-0.2, -0.28579998, -0.0255), (-0.20292893, -0.29287106, -0.0255), (-0.2007612, -0.28962684, -0.0255), (-0.20428193, -0.29151806, -0.025880601), (-0.20752615, -0.2917724, -0.026964467), (-0.20794094, -0.29077104, -0.028586581), (-0.20808658, -0.2904194, -0.0305), (-0.21, -0.29079998, -0.0305), (-0.21, -0.2911806, -0.028586581), (-0.21, -0.29226446, -0.026964467), (-0.2069054, -0.29327103, -0.025880601), (-0.20617317, -0.2950388, -0.0255), (-0.21, -0.2938866, -0.025880601), (-0.21, -0.2958, -0.0255), (-0.235, -0.29079998, -0.6155), (-0.235, -0.2904194, -0.6174134), (-0.21, -0.2904194, -0.6174134), (-0.21, -0.29079998, -0.6155), (-0.235, -0.28933555, -0.61903554), (-0.21, -0.28933555, -0.61903554), (-0.235, -0.2877134, -0.6201194), (-0.235, -0.28579998, -0.6205), (-0.21, -0.28579998, -0.6205), (-0.21, -0.2877134, -0.6201194), (-0.21, -0.2558, -0.6155), (-0.21, -0.2561806, -0.6174134), (-0.235, -0.2561806, -0.6174134), (-0.235, -0.2558, -0.6155), (-0.21, -0.25726447, -0.61903554), (-0.235, -0.25726447, -0.61903554), (-0.21, -0.2588866, -0.6201194), (-0.21, -0.26079997, -0.6205), (-0.235, -0.26079997, -0.6205), (-0.235, -0.2588866, -0.6201194), (-0.20794094, -0.25582898, -0.028586581), (-0.21, -0.2558, -0.0305), (-0.21, -0.2554194, -0.028586581), (-0.20808658, -0.2561806, -0.0305), (-0.20619534, -0.25699532, -0.028586581), (-0.20646447, -0.25726447, -0.0305), (-0.2053806, -0.2588866, -0.0305), (-0.20752615, -0.25482762, -0.026964467), (-0.20542893, -0.25622895, -0.026964467), (-0.2069054, -0.25332898, -0.025880601), (-0.21, -0.25433555, -0.026964467), (-0.21, -0.2527134, -0.025880601), (-0.21, -0.2508, -0.0255), (-0.20428193, -0.25508192, -0.025880601), (-0.20617317, -0.2515612, -0.0255), (-0.20292893, -0.25372893, -0.0255), (-0.20402762, -0.25832614, -0.026964467), (-0.20502898, -0.25874093, -0.028586581), (-0.205, -0.26079997, -0.0305), (-0.2046194, -0.26079997, -0.028586581), (-0.20353554, -0.26079997, -0.026964467), (-0.2007612, -0.25697318, -0.0255), (-0.20252898, -0.25770542, -0.025880601), (-0.20191342, -0.26079997, -0.025880601), (-0.2, -0.26079997, -0.0255), (-0.235, -0.2938866, -0.025880601), (-0.21, -0.2938866, -0.025880601), (-0.21, -0.2958, -0.0255), (-0.235, -0.2958, -0.0255), (-0.235, -0.29226446, -0.026964467), (-0.21, -0.29226446, -0.026964467), (-0.235, -0.2911806, -0.028586581), (-0.21, -0.2911806, -0.028586581), (-0.235, -0.29079998, -0.0305), (-0.21, -0.29079998, -0.0305), (-0.24, -0.28579998, -0.6155), (-0.2396194, -0.2877134, -0.6155), (-0.24, -0.28579998, -0.0305), (-0.2396194, -0.2877134, -0.0305), (-0.23853554, -0.28933555, -0.6155), (-0.23853554, -0.28933555, -0.0305), (-0.23691343, -0.2904194, -0.6155), (-0.235, -0.29079998, -0.6155), (-0.235, -0.29079998, -0.0305), (-0.23691343, -0.2904194, -0.0305), (-0.235, -0.2558, -0.6155), (-0.23691343, -0.2561806, -0.6155), (-0.23691343, -0.2561806, -0.0305), (-0.235, -0.2558, -0.0305), (-0.23853554, -0.25726447, -0.6155), (-0.23853554, -0.25726447, -0.0305), (-0.2396194, -0.2588866, -0.6155), (-0.24, -0.26079997, -0.6155), (-0.24, -0.26079997, -0.0305), (-0.2396194, -0.2588866, -0.0305), (-0.21, -0.2527134, -0.025880601), (-0.235, -0.2527134, -0.025880601), (-0.235, -0.2508, -0.0255), (-0.21, -0.2508, -0.0255), (-0.21, -0.25433555, -0.026964467), (-0.235, -0.25433555, -0.026964467), (-0.21, -0.2554194, -0.028586581), (-0.235, -0.2554194, -0.028586581), (-0.21, -0.2558, -0.0305), (-0.235, -0.2558, -0.0305), (-0.24146447, -0.28579998, -0.026964467), (-0.24097238, -0.28827384, -0.026964467), (-0.24247102, -0.2888946, -0.025880601), (-0.24308658, -0.28579998, -0.025880601), (-0.235, -0.2911806, -0.028586581), (-0.23705907, -0.29077104, -0.028586581), (-0.235, -0.29079998, -0.0305), (-0.23691343, -0.2904194, -0.0305), (-0.23747385, -0.2917724, -0.026964467), (-0.2442388, -0.28962684, -0.0255), (-0.245, -0.28579998, -0.0255), (-0.23882683, -0.2950388, -0.0255), (-0.235, -0.2938866, -0.025880601), (-0.235, -0.2958, -0.0255), (-0.2380946, -0.29327103, -0.025880601), (-0.235, -0.29226446, -0.026964467), (-0.23957108, -0.29037106, -0.026964467), (-0.23880465, -0.28960466, -0.028586581), (-0.23853554, -0.28933555, -0.0305), (-0.2396194, -0.2877134, -0.0305), (-0.23997103, -0.28785908, -0.028586581), (-0.24071808, -0.29151806, -0.025880601), (-0.24207108, -0.29287106, -0.0255), (-0.24, -0.28579998, -0.0305), (-0.2403806, -0.28579998, -0.028586581), (-0.2403806, -0.26079997, -0.028586581), (-0.23997103, -0.25874093, -0.028586581), (-0.24, -0.26079997, -0.0305), (-0.2396194, -0.2588866, -0.0305), (-0.24097238, -0.25832614, -0.026964467), (-0.23957108, -0.25622895, -0.026964467), (-0.23880465, -0.25699532, -0.028586581), (-0.23853554, -0.25726447, -0.0305), (-0.24146447, -0.26079997, -0.026964467), (-0.24247102, -0.25770542, -0.025880601), (-0.24308658, -0.26079997, -0.025880601), (-0.245, -0.26079997, -0.0255), (-0.24207108, -0.25372893, -0.0255), (-0.2442388, -0.25697318, -0.0255), (-0.24071808, -0.25508192, -0.025880601), (-0.23747385, -0.25482762, -0.026964467), (-0.23705907, -0.25582898, -0.028586581), (-0.23691343, -0.2561806, -0.0305), (-0.235, -0.2558, -0.0305), (-0.235, -0.2554194, -0.028586581), (-0.235, -0.25433555, -0.026964467), (-0.2380946, -0.25332898, -0.025880601), (-0.235, -0.2508, -0.0255), (-0.235, -0.2527134, -0.025880601), (-0.23882683, -0.2515612, -0.0255), (-0.24308658, -0.26079997, -0.025880601), (-0.24308658, -0.28579998, -0.025880601), (-0.245, -0.28579998, -0.0255), (-0.245, -0.26079997, -0.0255), (-0.24146447, -0.26079997, -0.026964467), (-0.24146447, -0.28579998, -0.026964467), (-0.2403806, -0.26079997, -0.028586581), (-0.2403806, -0.28579998, -0.028586581), (-0.24, -0.26079997, -0.0305), (-0.24, -0.28579998, -0.0305), (0.205, 0.26079997, -0.6155), (0.2053806, 0.2588866, -0.6155), (0.2053806, 0.2588866, -0.0305), (0.205, 0.26079997, -0.0305), (0.20646447, 0.25726447, -0.6155), (0.20646447, 0.25726447, -0.0305), (0.20808658, 0.2561806, -0.6155), (0.21, 0.2558, -0.6155), (0.21, 0.2558, -0.0305), (0.20808658, 0.2561806, -0.0305), (0.20191342, 0.28579998, -0.025880601), (0.20191342, 0.26079997, -0.025880601), (0.20353554, 0.28579998, -0.026964467), (0.20353554, 0.26079997, -0.026964467), (0.205, 0.28579998, -0.0305), (0.205, 0.26079997, -0.0305), (0.2046194, 0.26079997, -0.028586581), (0.2046194, 0.28579998, -0.028586581), (0.235, 0.26079997, -0.6205), (0.235, 0.2588866, -0.6201194), (0.21, 0.2588866, -0.6201194), (0.21, 0.26079997, -0.6205), (0.235, 0.25726447, -0.61903554), (0.21, 0.25726447, -0.61903554), (0.235, 0.2561806, -0.6174134), (0.235, 0.2558, -0.6155), (0.21, 0.2558, -0.6155), (0.21, 0.2561806, -0.6174134), (0.20402762, 0.25832614, -0.026964467), (0.20252898, 0.25770542, -0.025880601), (0.21, 0.2554194, -0.028586581), (0.20794094, 0.25582898, -0.028586581), (0.21, 0.2558, -0.0305), (0.20808658, 0.2561806, -0.0305), (0.21, 0.25433555, -0.026964467), (0.20752615, 0.25482762, -0.026964467), (0.2007612, 0.25697318, -0.0255), (0.2, 0.26079997, -0.0255), (0.21, 0.2508, -0.0255), (0.20617317, 0.2515612, -0.0255), (0.21, 0.2527134, -0.025880601), (0.2069054, 0.25332898, -0.025880601), (0.20542893, 0.25622895, -0.026964467), (0.20619534, 0.25699532, -0.028586581), (0.20646447, 0.25726447, -0.0305), (0.20502898, 0.25874093, -0.028586581), (0.2053806, 0.2588866, -0.0305), (0.20428193, 0.25508192, -0.025880601), (0.20292893, 0.25372893, -0.0255), (0.205, 0.26079997, -0.0305), (0.235, 0.2558, -0.6155), (0.23691343, 0.2561806, -0.6155), (0.23691343, 0.2561806, -0.0305), (0.235, 0.2558, -0.0305), (0.24, 0.26079997, -0.6155), (0.24, 0.26079997, -0.0305), (0.2396194, 0.2588866, -0.0305), (0.23853554, 0.25726447, -0.6155), (0.2396194, 0.2588866, -0.6155), (0.23853554, 0.25726447, -0.0305), (0.21, 0.2527134, -0.025880601), (0.235, 0.2527134, -0.025880601), (0.21, 0.25433555, -0.026964467), (0.235, 0.25433555, -0.026964467), (0.21, 0.2554194, -0.028586581), (0.235, 0.2554194, -0.028586581), (0.21, 0.2558, -0.0305), (0.235, 0.2558, -0.0305), (0.2403806, 0.26079997, -0.028586581), (0.23997103, 0.25874093, -0.028586581), (0.24, 0.26079997, -0.0305), (0.2396194, 0.2588866, -0.0305), (0.24097238, 0.25832614, -0.026964467), (0.23957108, 0.25622895, -0.026964467), (0.23880465, 0.25699532, -0.028586581), (0.23853554, 0.25726447, -0.0305), (0.24146447, 0.26079997, -0.026964467), (0.24247102, 0.25770542, -0.025880601), (0.24308658, 0.26079997, -0.025880601), (0.245, 0.26079997, -0.0255), (0.24207108, 0.25372893, -0.0255), (0.2442388, 0.25697318, -0.0255), (0.24071808, 0.25508192, -0.025880601), (0.23747385, 0.25482762, -0.026964467), (0.23705907, 0.25582898, -0.028586581), (0.23691343, 0.2561806, -0.0305), (0.235, 0.2558, -0.0305), (0.235, 0.2554194, -0.028586581), (0.235, 0.25433555, -0.026964467), (0.23882683, 0.2515612, -0.0255), (0.2380946, 0.25332898, -0.025880601), (0.235, 0.2527134, -0.025880601), (0.235, 0.2508, -0.0255), (0.24308658, 0.26079997, -0.025880601), (0.24308658, 0.28579998, -0.025880601), (0.245, 0.28579998, -0.0255), (0.245, 0.26079997, -0.0255), (0.24146447, 0.26079997, -0.026964467), (0.24146447, 0.28579998, -0.026964467), (0.2403806, 0.26079997, -0.028586581), (0.2403806, 0.28579998, -0.028586581), (0.24, 0.26079997, -0.0305), (0.24, 0.28579998, -0.0305), (0.23691343, -0.28579998, -0.6201194), (0.235, -0.28579998, -0.6205), (0.235, -0.26079997, -0.6205), (0.23691343, -0.26079997, -0.6201194), (0.2396194, -0.26079997, -0.6174134), (0.23853554, -0.26079997, -0.61903554), (0.23853554, -0.28579998, -0.61903554), (0.2396194, -0.28579998, -0.6174134), (0.235, -0.29079998, -0.0305), (0.235, -0.29079998, -0.6155), (0.23691343, -0.2904194, -0.6155), (0.23691343, -0.2904194, -0.0305), (0.24, -0.28579998, -0.6155), (0.24, -0.28579998, -0.0305), (0.2396194, -0.2877134, -0.6155), (0.23853554, -0.28933555, -0.6155), (0.2396194, -0.2877134, -0.0305), (0.23853554, -0.28933555, -0.0305), (0.235, -0.29079998, -0.6155), (0.235, -0.2904194, -0.6174134), (0.23573224, -0.2904194, -0.6172678), (0.235, -0.2877134, -0.6201194), (0.23691343, -0.28579998, -0.6201194), (0.235, -0.28933555, -0.61903554), (0.23676775, -0.2877134, -0.6197678), (0.236353, -0.28933555, -0.6187664), (0.235, -0.29079998, -0.6155), (0.23676775, -0.2904194, -0.6162322), (0.23691343, -0.2904194, -0.6155), (0.236353, -0.2904194, -0.61685294), (0.23853554, -0.28933555, -0.6155), (0.23826641, -0.28933555, -0.61685294), (0.2375, -0.28933555, -0.618), (0.2396194, -0.2877134, -0.6155), (0.23926777, -0.2877134, -0.6172678), (0.24, -0.28579998, -0.6155), (0.23826641, -0.2877134, -0.6187664), (0.2396194, -0.28579998, -0.6174134), (0.23853554, -0.28579998, -0.61903554), (0.235, -0.2588866, -0.6201194), (0.23691343, -0.26079997, -0.6201194), (0.235, -0.25726447, -0.61903554), (0.23676775, -0.2588866, -0.6197678), (0.235, -0.2561806, -0.6174134), (0.235, -0.2558, -0.6155), (0.23573224, -0.2561806, -0.6172678), (0.236353, -0.25726447, -0.6187664), (0.2396194, -0.26079997, -0.6174134), (0.23853554, -0.26079997, -0.61903554), (0.23826641, -0.2588866, -0.6187664), (0.23826641, -0.25726447, -0.61685294), (0.2396194, -0.2588866, -0.6155), (0.23926777, -0.2588866, -0.6172678), (0.24, -0.26079997, -0.6155), (0.2375, -0.25726447, -0.618), (0.23676775, -0.2561806, -0.6162322), (0.23691343, -0.2561806, -0.6155), (0.23853554, -0.25726447, -0.6155), (0.236353, -0.2561806, -0.61685294), (0.235, -0.2558, -0.6155), (0.24, -0.26079997, -0.6155), (0.2396194, -0.2588866, -0.6155), (0.2396194, -0.2588866, -0.0305), (0.24, -0.26079997, -0.0305), (0.23853554, -0.25726447, -0.6155), (0.23853554, -0.25726447, -0.0305), (0.23691343, -0.2561806, -0.6155), (0.235, -0.2558, -0.6155), (0.235, -0.2558, -0.0305), (0.23691343, -0.2561806, -0.0305), (0.245, -0.28579998, -0.0255), (0.24308658, -0.26079997, -0.025880601), (0.245, -0.26079997, -0.0255), (0.24308658, -0.28579998, -0.025880601), (0.24146447, -0.28579998, -0.026964467), (0.24146447, -0.26079997, -0.026964467), (0.2403806, -0.28579998, -0.028586581), (0.2403806, -0.26079997, -0.028586581), (0.24, -0.28579998, -0.0305), (0.24, -0.26079997, -0.0305), (0.23997103, -0.28785908, -0.028586581), (0.24, -0.28579998, -0.0305), (0.2403806, -0.28579998, -0.028586581), (0.24146447, -0.28579998, -0.026964467), (0.24097238, -0.28827384, -0.026964467), (0.23880465, -0.28960466, -0.028586581), (0.2396194, -0.2877134, -0.0305), (0.23853554, -0.28933555, -0.0305), (0.23957108, -0.29037106, -0.026964467), (0.24247102, -0.2888946, -0.025880601), (0.24308658, -0.28579998, -0.025880601), (0.245, -0.28579998, -0.0255), (0.24207108, -0.29287106, -0.0255), (0.2442388, -0.28962684, -0.0255), (0.24071808, -0.29151806, -0.025880601), (0.23747385, -0.2917724, -0.026964467), (0.23705907, -0.29077104, -0.028586581), (0.23691343, -0.2904194, -0.0305), (0.235, -0.29079998, -0.0305), (0.235, -0.2911806, -0.028586581), (0.235, -0.29226446, -0.026964467), (0.2380946, -0.29327103, -0.025880601), (0.23882683, -0.2950388, -0.0255), (0.235, -0.2938866, -0.025880601), (0.235, -0.2958, -0.0255), (0.235, -0.28579998, -0.6205), (0.235, -0.2877134, -0.6201194), (0.21, -0.2877134, -0.6201194), (0.21, -0.28579998, -0.6205), (0.21, -0.2904194, -0.6174134), (0.235, -0.28933555, -0.61903554), (0.235, -0.2904194, -0.6174134), (0.21, -0.28933555, -0.61903554), (0.21, -0.2588866, -0.6201194), (0.21, -0.25726447, -0.61903554), (0.21, -0.2561806, -0.6174134), (0.21, -0.2558, -0.6155), (0.23705907, -0.25582898, -0.028586581), (0.235, -0.2558, -0.0305), (0.235, -0.2554194, -0.028586581), (0.23691343, -0.2561806, -0.0305), (0.23880465, -0.25699532, -0.028586581), (0.23853554, -0.25726447, -0.0305), (0.2396194, -0.2588866, -0.0305), (0.23747385, -0.25482762, -0.026964467), (0.23957108, -0.25622895, -0.026964467), (0.2380946, -0.25332898, -0.025880601), (0.235, -0.25433555, -0.026964467), (0.235, -0.2527134, -0.025880601), (0.235, -0.2508, -0.0255), (0.24071808, -0.25508192, -0.025880601), (0.23882683, -0.2515612, -0.0255), (0.24207108, -0.25372893, -0.0255), (0.24097238, -0.25832614, -0.026964467), (0.23997103, -0.25874093, -0.028586581), (0.24, -0.26079997, -0.0305), (0.2403806, -0.26079997, -0.028586581), (0.24146447, -0.26079997, -0.026964467), (0.2442388, -0.25697318, -0.0255), (0.24247102, -0.25770542, -0.025880601), (0.24308658, -0.26079997, -0.025880601), (0.245, -0.26079997, -0.0255), (0.21, -0.2938866, -0.025880601), (0.235, -0.2938866, -0.025880601), (0.235, -0.2958, -0.0255), (0.21, -0.2958, -0.0255), (0.21, -0.29226446, -0.026964467), (0.235, -0.29226446, -0.026964467), (0.21, -0.2911806, -0.028586581), (0.235, -0.2911806, -0.028586581), (0.21, -0.29079998, -0.0305), (0.235, -0.29079998, -0.0305), (0.205, -0.28579998, -0.6155), (0.2053806, -0.2877134, -0.6155), (0.2053806, -0.2877134, -0.0305), (0.205, -0.28579998, -0.0305), (0.20646447, -0.28933555, -0.6155), (0.20646447, -0.28933555, -0.0305), (0.20808658, -0.2904194, -0.6155), (0.21, -0.29079998, -0.6155), (0.21, -0.29079998, -0.0305), (0.20808658, -0.2904194, -0.0305), (0.21, -0.2558, -0.6155), (0.20808658, -0.2561806, -0.6155), (0.20808658, -0.2561806, -0.0305), (0.21, -0.2558, -0.0305), (0.20646447, -0.25726447, -0.6155), (0.20646447, -0.25726447, -0.0305), (0.2053806, -0.2588866, -0.6155), (0.205, -0.26079997, -0.6155), (0.205, -0.26079997, -0.0305), (0.2053806, -0.2588866, -0.0305), (0.235, -0.2527134, -0.025880601), (0.21, -0.2527134, -0.025880601), (0.21, -0.2508, -0.0255), (0.235, -0.2508, -0.0255), (0.235, -0.25433555, -0.026964467), (0.21, -0.25433555, -0.026964467), (0.235, -0.2554194, -0.028586581), (0.21, -0.2554194, -0.028586581), (0.235, -0.2558, -0.0305), (0.21, -0.2558, -0.0305), (0.20191342, -0.28579998, -0.025880601), (0.20353554, -0.28579998, -0.026964467), (0.20402762, -0.28827384, -0.026964467), (0.20252898, -0.2888946, -0.025880601), (0.21, -0.2911806, -0.028586581), (0.20794094, -0.29077104, -0.028586581), (0.21, -0.29079998, -0.0305), (0.20808658, -0.2904194, -0.0305), (0.21, -0.29226446, -0.026964467), (0.20752615, -0.2917724, -0.026964467), (0.2007612, -0.28962684, -0.0255), (0.2, -0.28579998, -0.0255), (0.20617317, -0.2950388, -0.0255), (0.2069054, -0.29327103, -0.025880601), (0.21, -0.2958, -0.0255), (0.21, -0.2938866, -0.025880601), (0.20542893, -0.29037106, -0.026964467), (0.20619534, -0.28960466, -0.028586581), (0.20646447, -0.28933555, -0.0305), (0.20502898, -0.28785908, -0.028586581), (0.2053806, -0.2877134, -0.0305), (0.20428193, -0.29151806, -0.025880601), (0.20292893, -0.29287106, -0.0255), (0.205, -0.28579998, -0.0305), (0.2046194, -0.28579998, -0.028586581), (0.2046194, -0.26079997, -0.028586581), (0.20502898, -0.25874093, -0.028586581), (0.205, -0.26079997, -0.0305), (0.2053806, -0.2588866, -0.0305), (0.20402762, -0.25832614, -0.026964467), (0.20542893, -0.25622895, -0.026964467), (0.20619534, -0.25699532, -0.028586581), (0.20646447, -0.25726447, -0.0305), (0.20353554, -0.26079997, -0.026964467), (0.20252898, -0.25770542, -0.025880601), (0.20191342, -0.26079997, -0.025880601), (0.2, -0.26079997, -0.0255), (0.20292893, -0.25372893, -0.0255), (0.2007612, -0.25697318, -0.0255), (0.20428193, -0.25508192, -0.025880601), (0.20752615, -0.25482762, -0.026964467), (0.20794094, -0.25582898, -0.028586581), (0.20808658, -0.2561806, -0.0305), (0.21, -0.2558, -0.0305), (0.21, -0.2554194, -0.028586581), (0.21, -0.25433555, -0.026964467), (0.2069054, -0.25332898, -0.025880601), (0.21, -0.2508, -0.0255), (0.21, -0.2527134, -0.025880601), (0.20617317, -0.2515612, -0.0255), (0.205, -0.26079997, -0.0305), (0.205, -0.28579998, -0.0305), (0.2536194, 0.3017134, -0.0255), (0.2536194, 0.3017134, -0.005), (0.25253555, 0.30333555, -0.0255), (0.25253555, 0.30333555, -0.005), (0.2509134, 0.3044194, -0.0255), (0.249, 0.30479997, -0.0255), (0.2509134, 0.3044194, -0.005), (0.249, 0.30479997, -0.005), (0.2509134, 0.29979998, -0.00038060232), (0.2509134, 0.3015678, -0.00073223305), (0.25253555, 0.29979998, -0.0014644661), (0.2536194, 0.29979998, -0.003086583), (0.25253555, 0.30115297, -0.0017335926), (0.254, 0.29979998, -0.005), (0.2536194, 0.30053222, -0.003232233), (0.249, 0.30479997, -0.005), (0.2509134, 0.3040678, -0.003232233), (0.2509134, 0.3044194, -0.005), (0.249, 0.3044194, -0.003086583), (0.249, 0.30333555, -0.0014644661), (0.2509134, 0.3030664, -0.0017335926), (0.249, 0.3017134, -0.00038060232), (0.25253555, 0.3030664, -0.0036470098), (0.25253555, 0.30333555, -0.005), (0.25253555, 0.30229998, -0.0025), (0.2536194, 0.30115297, -0.0036470098), (0.2536194, 0.3017134, -0.005), (0.2536194, 0.3015678, -0.004267767), (-0.249, 0.30479997, -0.0255), (-0.2509134, 0.3044194, -0.0255), (-0.2509134, 0.3044194, -0.005), (-0.249, 0.30479997, -0.005), (-0.25253555, 0.30333555, -0.0255), (-0.25253555, 0.30333555, -0.005), (-0.2536194, 0.3017134, -0.0255), (-0.254, 0.29979998, -0.0255), (-0.254, 0.29979998, -0.005), (-0.2536194, 0.3017134, -0.005), (-0.249, 0.30479997, -0.005), (-0.249, 0.3044194, -0.003086583), (0.249, 0.30479997, -0.005), (-0.249, 0.30333555, -0.0014644661), (-0.249, 0.3017134, -0.00038060232), (-0.249, 0.29979998, 0), (0.249, 0.29979998, 0), (0.254, 0.29979998, -0.005), (0.2536194, -0.29979998, -0.003086583), (0.254, -0.29979998, -0.005), (0.25253555, -0.29979998, -0.0014644661), (0.249, 0.29979998, 0), (0.249, -0.29979998, 0), (0.2509134, -0.29979998, -0.00038060232), (0.249, -0.30479997, -0.005), (0.249, -0.30479997, -0.0255), (0.2509134, -0.3044194, -0.0255), (0.2509134, -0.3044194, -0.005), (0.2536194, -0.3017134, -0.005), (0.25253555, -0.30333555, -0.0255), (0.2536194, -0.3017134, -0.0255), (0.25253555, -0.30333555, -0.005), (-0.2536194, 0.29979998, -0.003086583), (-0.25253555, 0.29979998, -0.0014644661), (-0.25253555, 0.30115297, -0.0017335926), (-0.254, 0.29979998, -0.005), (-0.2536194, 0.30053222, -0.003232233), (-0.2509134, 0.29979998, -0.00038060232), (-0.2509134, 0.3015678, -0.00073223305), (-0.254, 0.29979998, -0.005), (-0.2536194, 0.30115297, -0.0036470098), (-0.2536194, 0.3015678, -0.004267767), (-0.25253555, 0.30229998, -0.0025), (-0.2536194, 0.3017134, -0.005), (-0.25253555, 0.3030664, -0.0036470098), (-0.2509134, 0.3030664, -0.0017335926), (-0.25253555, 0.30333555, -0.005), (-0.2509134, 0.3044194, -0.005), (-0.2509134, 0.3040678, -0.003232233), (-0.249, 0.30479997, -0.005), (0.249, -0.30333555, -0.0014644661), (0.249, -0.3044194, -0.003086583), (0.24973224, -0.3044194, -0.003232233), (0.249, -0.30479997, -0.005), (0.250353, -0.3044194, -0.0036470098), (0.2515, -0.30333555, -0.0025), (0.25076777, -0.3044194, -0.004267767), (0.2522664, -0.30333555, -0.0036470098), (0.250353, -0.30333555, -0.0017335926), (0.249, -0.30479997, -0.005), (0.249, -0.3017134, -0.00038060232), (0.25076777, -0.3017134, -0.00073223305), (0.249, -0.29979998, 0), (0.2522664, -0.3017134, -0.0017335926), (0.25326777, -0.3017134, -0.003232233), (0.25253555, -0.30333555, -0.005), (0.2509134, -0.3044194, -0.005), (0.25043505, -0.30451456, -0.005), (0.2536194, -0.3017134, -0.005), (0.254, -0.29979998, -0.005), (0.24995671, -0.3046097, -0.005), (-0.254, -0.29979998, -0.005), (-0.2536194, -0.29979998, -0.003086583), (-0.254, 0.29979998, -0.005), (-0.25253555, -0.29979998, -0.0014644661), (-0.2509134, -0.29979998, -0.00038060232), (0.249, -0.30479997, -0.005), (0.249, -0.3044194, -0.003086583), (-0.249, -0.3044194, -0.003086583), (-0.249, -0.30479997, -0.005), (-0.249, -0.3017134, -0.00038060232), (0.249, -0.30333555, -0.0014644661), (0.249, -0.3017134, -0.00038060232), (-0.249, -0.30333555, -0.0014644661), (-0.25253555, -0.30333555, -0.005), (-0.2509134, -0.3044194, -0.005), (-0.25076777, -0.3044194, -0.004267767), (-0.249, -0.30479997, -0.005), (-0.250353, -0.3044194, -0.0036470098), (-0.2515, -0.30333555, -0.0025), (-0.250353, -0.30333555, -0.0017335926), (-0.24973224, -0.3044194, -0.003232233), (-0.2522664, -0.30333555, -0.0036470098), (-0.249, -0.30479997, -0.005), (-0.2536194, -0.3017134, -0.005), (-0.25326777, -0.3017134, -0.003232233), (-0.254, -0.29979998, -0.005), (-0.2522664, -0.3017134, -0.0017335926), (-0.25076777, -0.3017134, -0.00073223305), (-0.249, -0.30333555, -0.0014644661), (-0.249, -0.30451456, -0.003564937), (-0.249, -0.3044194, -0.003086583), (-0.249, -0.3017134, -0.00038060232), (-0.249, -0.29979998, 0), (-0.249, -0.3046097, -0.004043292), (-0.254, -0.29979998, -0.0255), (-0.2536194, -0.3017134, -0.0255), (-0.254, -0.29979998, -0.005), (-0.2536194, -0.3017134, -0.005), (-0.25253555, -0.30333555, -0.0255), (-0.25253555, -0.30333555, -0.005), (-0.2509134, -0.3044194, -0.0255), (-0.249, -0.30479997, -0.0255), (-0.249, -0.30479997, -0.005), (-0.2509134, -0.3044194, -0.005), (0.24, 0.28579998, -0.6155), (0.2396194, 0.2877134, -0.6155), (0.2396194, 0.2877134, -0.0305), (0.24, 0.28579998, -0.0305), (0.23853554, 0.28933555, -0.0305), (0.23853554, 0.28933555, -0.6155), (0.23691343, 0.2904194, -0.6155), (0.235, 0.29079998, -0.6155), (0.23691343, 0.2904194, -0.0305), (0.235, 0.29079998, -0.0305), (0.21, 0.28579998, -0.6205), (0.21, 0.2877134, -0.6201194), (0.235, 0.2877134, -0.6201194), (0.235, 0.28579998, -0.6205), (0.235, 0.2904194, -0.6174134), (0.21, 0.28933555, -0.61903554), (0.21, 0.2904194, -0.6174134), (0.235, 0.28933555, -0.61903554), (0.23705907, 0.29077104, -0.028586581), (0.235, 0.29079998, -0.0305), (0.235, 0.2911806, -0.028586581), (0.23691343, 0.2904194, -0.0305), (0.23880465, 0.28960466, -0.028586581), (0.23853554, 0.28933555, -0.0305), (0.2396194, 0.2877134, -0.0305), (0.235, 0.29226446, -0.026964467), (0.23957108, 0.29037106, -0.026964467), (0.23747385, 0.2917724, -0.026964467), (0.235, 0.2938866, -0.025880601), (0.2380946, 0.29327103, -0.025880601), (0.235, 0.2958, -0.0255), (0.23882683, 0.2950388, -0.0255), (0.24071808, 0.29151806, -0.025880601), (0.24207108, 0.29287106, -0.0255), (0.24097238, 0.28827384, -0.026964467), (0.23997103, 0.28785908, -0.028586581), (0.24, 0.28579998, -0.0305), (0.2403806, 0.28579998, -0.028586581), (0.24146447, 0.28579998, -0.026964467), (0.2442388, 0.28962684, -0.0255), (0.24247102, 0.2888946, -0.025880601), (0.24308658, 0.28579998, -0.025880601), (0.245, 0.28579998, -0.0255), (0.21, 0.29079998, -0.6155), (0.20808658, 0.2904194, -0.6155), (0.20808658, 0.2904194, -0.0305), (0.21, 0.29079998, -0.0305), (0.20646447, 0.28933555, -0.6155), (0.20646447, 0.28933555, -0.0305), (0.2053806, 0.2877134, -0.6155), (0.205, 0.28579998, -0.6155), (0.205, 0.28579998, -0.0305), (0.2053806, 0.2877134, -0.0305), (0.235, 0.2938866, -0.025880601), (0.21, 0.29226446, -0.026964467), (0.21, 0.2938866, -0.025880601), (0.235, 0.2958, -0.0255), (0.21, 0.2958, -0.0255), (0.235, 0.29226446, -0.026964467), (0.235, 0.29079998, -0.0305), (0.21, 0.29079998, -0.0305), (0.21, 0.2911806, -0.028586581), (0.235, 0.2911806, -0.028586581), (0.20502898, 0.28785908, -0.028586581), (0.205, 0.28579998, -0.0305), (0.20619534, 0.28960466, -0.028586581), (0.2053806, 0.2877134, -0.0305), (0.20646447, 0.28933555, -0.0305), (0.20402762, 0.28827384, -0.026964467), (0.20542893, 0.29037106, -0.026964467), (0.2, 0.28579998, -0.0255), (0.2007612, 0.28962684, -0.0255), (0.20252898, 0.2888946, -0.025880601), (0.20428193, 0.29151806, -0.025880601), (0.20292893, 0.29287106, -0.0255), (0.20752615, 0.2917724, -0.026964467), (0.20794094, 0.29077104, -0.028586581), (0.20808658, 0.2904194, -0.0305), (0.21, 0.29079998, -0.0305), (0.21, 0.2911806, -0.028586581), (0.21, 0.29226446, -0.026964467), (0.2069054, 0.29327103, -0.025880601), (0.20617317, 0.2950388, -0.0255), (0.21, 0.2938866, -0.025880601), (0.21, 0.2958, -0.0255), (0.235, 0.2558, -0.6155), (0.236353, 0.2561806, -0.61685294), (0.23676775, 0.2561806, -0.6162322), (0.2375, 0.25726447, -0.618), (0.23826641, 0.25726447, -0.61685294), (0.23826641, 0.2588866, -0.6187664), (0.23573224, 0.2561806, -0.6172678), (0.236353, 0.25726447, -0.6187664), (0.235, 0.2561806, -0.6174134), (0.235, 0.2558, -0.6155), (0.235, 0.25726447, -0.61903554), (0.23676775, 0.2588866, -0.6197678), (0.23926777, 0.2588866, -0.6172678), (0.2396194, 0.26079997, -0.6174134), (0.23853554, 0.26079997, -0.61903554), (0.23691343, 0.26079997, -0.6201194), (0.235, 0.2588866, -0.6201194), (0.235, 0.26079997, -0.6205), (0.235, 0.26079997, -0.6205), (0.235, 0.28579998, -0.6205), (0.23691343, 0.28579998, -0.6201194), (0.23691343, 0.26079997, -0.6201194), (0.2396194, 0.26079997, -0.6174134), (0.23853554, 0.28579998, -0.61903554), (0.2396194, 0.28579998, -0.6174134), (0.23853554, 0.26079997, -0.61903554), (0.2396194, 0.28579998, -0.6174134), (0.23926777, 0.2877134, -0.6172678), (0.23853554, 0.28579998, -0.61903554), (0.23826641, 0.2877134, -0.6187664), (0.23826641, 0.28933555, -0.61685294), (0.2375, 0.28933555, -0.618), (0.23676775, 0.2877134, -0.6197678), (0.236353, 0.28933555, -0.6187664), (0.23691343, 0.28579998, -0.6201194), (0.235, 0.28579998, -0.6205), (0.235, 0.2877134, -0.6201194), (0.235, 0.28933555, -0.61903554), (0.23676775, 0.2904194, -0.6162322), (0.236353, 0.2904194, -0.61685294), (0.23573224, 0.2904194, -0.6172678), (0.235, 0.2904194, -0.6174134), (0.21, 0.28579998, -0.6205), (0.20808658, 0.28579998, -0.6201194), (0.21, 0.2877134, -0.6201194), (0.20823224, 0.2877134, -0.6197678), (0.20646447, 0.28579998, -0.61903554), (0.2067336, 0.2877134, -0.6187664), (0.2053806, 0.28579998, -0.6174134), (0.2075, 0.28933555, -0.618), (0.21, 0.28933555, -0.61903554), (0.21, 0.2904194, -0.6174134), (0.208647, 0.28933555, -0.6187664), (0.21, 0.29079998, -0.6155), (0.20926777, 0.2904194, -0.6172678), (0.208647, 0.2904194, -0.61685294), (0.21, 0.29079998, -0.6155), (0.20573224, 0.2877134, -0.6172678), (0.2067336, 0.28933555, -0.61685294), (0.205, 0.28579998, -0.6155), (0.2053806, 0.2877134, -0.6155), (0.20646447, 0.28933555, -0.6155), (0.20823224, 0.2904194, -0.6162322), (0.21, 0.29079998, -0.6155), (0.21, 0.29079998, -0.6155), (0.20808658, 0.2904194, -0.6155), (0.21, 0.26079997, -0.6205), (0.20808658, 0.26079997, -0.6201194), (0.21, 0.28579998, -0.6205), (0.20646447, 0.26079997, -0.61903554), (0.2053806, 0.26079997, -0.6174134), (0.205, 0.26079997, -0.6155), (0.205, 0.28579998, -0.6155), (0.20926777, 0.2561806, -0.6172678), (0.208647, 0.2561806, -0.61685294), (0.2075, 0.25726447, -0.618), (0.21, 0.2558, -0.6155), (0.21, 0.2561806, -0.6174134), (0.2067336, 0.2588866, -0.6187664), (0.208647, 0.25726447, -0.6187664), (0.21, 0.25726447, -0.61903554), (0.21, 0.2588866, -0.6201194), (0.20823224, 0.2588866, -0.6197678), (0.21, 0.26079997, -0.6205), (0.20823224, 0.2561806, -0.6162322), (0.2067336, 0.25726447, -0.61685294), (0.21, 0.2558, -0.6155), (0.20808658, 0.2561806, -0.6155), (0.20646447, 0.25726447, -0.6155), (0.20573224, 0.2588866, -0.6172678), (0.2053806, 0.2588866, -0.6155), (0.205, 0.26079997, -0.6155), (0.21, -0.26079997, -0.6205), (0.20808658, -0.26079997, -0.6201194), (0.21, -0.2588866, -0.6201194), (0.20823224, -0.2588866, -0.6197678), (0.20646447, -0.26079997, -0.61903554), (0.2067336, -0.2588866, -0.6187664), (0.2053806, -0.26079997, -0.6174134), (0.2075, -0.25726447, -0.618), (0.21, -0.25726447, -0.61903554), (0.21, -0.2561806, -0.6174134), (0.208647, -0.25726447, -0.6187664), (0.21, -0.2558, -0.6155), (0.20926777, -0.2561806, -0.6172678), (0.208647, -0.2561806, -0.61685294), (0.21, -0.2558, -0.6155), (0.20573224, -0.2588866, -0.6172678), (0.2067336, -0.25726447, -0.61685294), (0.205, -0.26079997, -0.6155), (0.2053806, -0.2588866, -0.6155), (0.20646447, -0.25726447, -0.6155), (0.20823224, -0.2561806, -0.6162322), (0.21, -0.2558, -0.6155), (0.21, -0.2558, -0.6155), (0.20808658, -0.2561806, -0.6155), (0.21, -0.28579998, -0.6205), (0.20808658, -0.28579998, -0.6201194), (0.21, -0.26079997, -0.6205), (0.20646447, -0.28579998, -0.61903554), (0.2053806, -0.28579998, -0.6174134), (0.205, -0.28579998, -0.6155), (0.205, -0.26079997, -0.6155), (0.20926777, -0.2904194, -0.6172678), (0.208647, -0.2904194, -0.61685294), (0.2075, -0.28933555, -0.618), (0.21, -0.29079998, -0.6155), (0.21, -0.2904194, -0.6174134), (0.2067336, -0.2877134, -0.6187664), (0.208647, -0.28933555, -0.6187664), (0.21, -0.28933555, -0.61903554), (0.21, -0.2877134, -0.6201194), (0.20823224, -0.2877134, -0.6197678), (0.21, -0.28579998, -0.6205), (0.20823224, -0.2904194, -0.6162322), (0.2067336, -0.28933555, -0.61685294), (0.21, -0.29079998, -0.6155), (0.20808658, -0.2904194, -0.6155), (0.20646447, -0.28933555, -0.6155), (0.20573224, -0.2877134, -0.6172678), (0.2053806, -0.2877134, -0.6155), (0.205, -0.28579998, -0.6155), (-0.235, -0.26079997, -0.6205), (-0.23691343, -0.26079997, -0.6201194), (-0.235, -0.2588866, -0.6201194), (-0.23676775, -0.2588866, -0.6197678), (-0.23853554, -0.26079997, -0.61903554), (-0.23826641, -0.2588866, -0.6187664), (-0.2396194, -0.26079997, -0.6174134), (-0.2375, -0.25726447, -0.618), (-0.235, -0.25726447, -0.61903554), (-0.235, -0.2561806, -0.6174134), (-0.236353, -0.25726447, -0.6187664), (-0.235, -0.2558, -0.6155), (-0.23573224, -0.2561806, -0.6172678), (-0.236353, -0.2561806, -0.61685294), (-0.235, -0.2558, -0.6155), (-0.23926777, -0.2588866, -0.6172678), (-0.23826641, -0.25726447, -0.61685294), (-0.24, -0.26079997, -0.6155), (-0.2396194, -0.2588866, -0.6155), (-0.23853554, -0.25726447, -0.6155), (-0.23676775, -0.2561806, -0.6162322), (-0.235, -0.2558, -0.6155), (-0.235, -0.2558, -0.6155), (-0.23691343, -0.2561806, -0.6155), (-0.24, -0.26079997, -0.6155), (-0.2396194, -0.26079997, -0.6174134), (-0.24, -0.28579998, -0.6155), (-0.2396194, -0.28579998, -0.6174134), (-0.23853554, -0.26079997, -0.61903554), (-0.23853554, -0.28579998, -0.61903554), (-0.23691343, -0.26079997, -0.6201194), (-0.235, -0.26079997, -0.6205), (-0.23691343, -0.28579998, -0.6201194), (-0.235, -0.28579998, -0.6205), (-0.23573224, -0.2904194, -0.6172678), (-0.236353, -0.2904194, -0.61685294), (-0.2375, -0.28933555, -0.618), (-0.235, -0.29079998, -0.6155), (-0.235, -0.2904194, -0.6174134), (-0.23826641, -0.2877134, -0.6187664), (-0.236353, -0.28933555, -0.6187664), (-0.235, -0.28933555, -0.61903554), (-0.235, -0.2877134, -0.6201194), (-0.23676775, -0.2877134, -0.6197678), (-0.235, -0.28579998, -0.6205), (-0.23691343, -0.28579998, -0.6201194), (-0.23853554, -0.28579998, -0.61903554), (-0.23676775, -0.2904194, -0.6162322), (-0.23826641, -0.28933555, -0.61685294), (-0.235, -0.29079998, -0.6155), (-0.23691343, -0.2904194, -0.6155), (-0.23853554, -0.28933555, -0.6155), (-0.2396194, -0.28579998, -0.6174134), (-0.23926777, -0.2877134, -0.6172678), (-0.2396194, -0.2877134, -0.6155), (-0.24, -0.28579998, -0.6155), (-0.21, -0.29079998, -0.6155), (-0.208647, -0.2904194, -0.61685294), (-0.20823224, -0.2904194, -0.6162322), (-0.2075, -0.28933555, -0.618), (-0.2067336, -0.28933555, -0.61685294), (-0.2067336, -0.2877134, -0.6187664), (-0.20926777, -0.2904194, -0.6172678), (-0.208647, -0.28933555, -0.6187664), (-0.21, -0.2904194, -0.6174134), (-0.21, -0.29079998, -0.6155), (-0.21, -0.28933555, -0.61903554), (-0.20823224, -0.2877134, -0.6197678), (-0.20573224, -0.2877134, -0.6172678), (-0.2053806, -0.28579998, -0.6174134), (-0.20646447, -0.28579998, -0.61903554), (-0.20808658, -0.28579998, -0.6201194), (-0.21, -0.2877134, -0.6201194), (-0.21, -0.28579998, -0.6205), (-0.205, -0.28579998, -0.6155), (-0.2053806, -0.26079997, -0.6174134), (-0.205, -0.26079997, -0.6155), (-0.20646447, -0.26079997, -0.61903554), (-0.21, -0.28579998, -0.6205), (-0.21, -0.26079997, -0.6205), (-0.20808658, -0.26079997, -0.6201194), (-0.20573224, -0.2588866, -0.6172678), (-0.2067336, -0.2588866, -0.6187664), (-0.2067336, -0.25726447, -0.61685294), (-0.2075, -0.25726447, -0.618), (-0.20823224, -0.2588866, -0.6197678), (-0.208647, -0.25726447, -0.6187664), (-0.21, -0.26079997, -0.6205), (-0.21, -0.2588866, -0.6201194), (-0.21, -0.25726447, -0.61903554), (-0.20823224, -0.2561806, -0.6162322), (-0.208647, -0.2561806, -0.61685294), (-0.20926777, -0.2561806, -0.6172678), (-0.21, -0.2561806, -0.6174134), (-0.23573224, 0.2561806, -0.6172678), (-0.236353, 0.2561806, -0.61685294), (-0.2375, 0.25726447, -0.618), (-0.235, 0.2558, -0.6155), (-0.235, 0.2561806, -0.6174134), (-0.23826641, 0.2588866, -0.6187664), (-0.236353, 0.25726447, -0.6187664), (-0.235, 0.25726447, -0.61903554), (-0.235, 0.2588866, -0.6201194), (-0.23676775, 0.2588866, -0.6197678), (-0.235, 0.26079997, -0.6205), (-0.23691343, 0.26079997, -0.6201194), (-0.23853554, 0.26079997, -0.61903554), (-0.23676775, 0.2561806, -0.6162322), (-0.23826641, 0.25726447, -0.61685294), (-0.235, 0.2558, -0.6155), (-0.23691343, 0.2561806, -0.6155), (-0.23853554, 0.25726447, -0.6155), (-0.2396194, 0.26079997, -0.6174134), (-0.23926777, 0.2588866, -0.6172678), (-0.2396194, 0.2588866, -0.6155), (-0.24, 0.26079997, -0.6155), (-0.21, 0.26079997, -0.6205), (-0.20646447, 0.25726447, -0.61903554), (-0.235, 0.2588866, -0.6201194), (-0.235, 0.26079997, -0.6205), (-0.235, 0.25726447, -0.61903554), (-0.20535105, 0.25615105, -0.61734045), (-0.205, 0.2558, -0.6155), (-0.235, 0.2558, -0.6155), (-0.235, 0.2561806, -0.6174134), (-0.20808658, 0.28579998, -0.6201194), (-0.20646447, 0.25726447, -0.61903554), (-0.20646447, 0.28579998, -0.61903554), (-0.2053806, 0.28579998, -0.6174134), (-0.205, 0.28579998, -0.6155), (-0.20535105, 0.25615105, -0.61734045), (-0.205, 0.2558, -0.6155), (-0.20573224, 0.2877134, -0.6172678), (-0.2067336, 0.2877134, -0.6187664), (-0.2067336, 0.28933555, -0.61685294), (-0.2075, 0.28933555, -0.618), (-0.20823224, 0.2877134, -0.6197678), (-0.208647, 0.28933555, -0.6187664), (-0.21, 0.28579998, -0.6205), (-0.21, 0.2877134, -0.6201194), (-0.21, 0.28933555, -0.61903554), (-0.20823224, 0.2904194, -0.6162322), (-0.208647, 0.2904194, -0.61685294), (-0.20926777, 0.2904194, -0.6172678), (-0.21, 0.2904194, -0.6174134), (-0.235, 0.28579998, -0.6205), (-0.235, 0.2877134, -0.6201194), (-0.21, 0.2877134, -0.6201194), (-0.21, 0.28579998, -0.6205), (-0.21, 0.2904194, -0.6174134), (-0.235, 0.28933555, -0.61903554), (-0.235, 0.2904194, -0.6174134), (-0.21, 0.28933555, -0.61903554), (-0.235, 0.28579998, -0.6205), (-0.23691343, 0.28579998, -0.6201194), (-0.235, 0.2877134, -0.6201194), (-0.23676775, 0.2877134, -0.6197678), (-0.235, 0.28933555, -0.61903554), (-0.236353, 0.28933555, -0.6187664), (-0.235, 0.2904194, -0.6174134), (-0.235, 0.29051456, -0.6169351), (-0.235, 0.29079998, -0.6155), (-0.23573224, 0.2904194, -0.6172678), (-0.23853554, 0.28579998, -0.61903554), (-0.23826641, 0.2877134, -0.6187664), (-0.2375, 0.28933555, -0.618), (-0.2396194, 0.28579998, -0.6174134), (-0.24, 0.28579998, -0.6155), (-0.23926777, 0.2877134, -0.6172678), (-0.23826641, 0.28933555, -0.61685294), (-0.2396194, 0.2877134, -0.6155), (-0.23676775, 0.2904194, -0.6162322), (-0.236353, 0.2904194, -0.61685294), (-0.23853554, 0.28933555, -0.6155), (-0.23691343, 0.2904194, -0.6155), (-0.235, 0.29079998, -0.6155), (-0.235, 0.2906097, -0.6164567)]
        color3f[] primvars:displayColor = [(0.58, 0.56, 0.5)] (
            interpolation = "constant"
        )
        float[] primvars:displayOpacity = [1] (
            interpolation = "constant"
        )
        uniform token subdivisionScheme = "none"
    }

    def Scope "Collisions"
    {
        def Cube "Tabletop" (
            prepend apiSchemas = ["PhysicsCollisionAPI"]
        )
        {
            double size = 1
            token visibility = "invisible"
            float3 xformOp:scale = (0.508, 0.6096, 0.06)
            double3 xformOp:translate = (0, 0, -0.025)
            uniform token[] xformOpOrder = ["xformOp:translate", "xformOp:scale"]
        }
    }
}
